<?xml version="1.0" encoding="utf-8"?><svg xmlns="http://www.w3.org/2000/svg" xmlns:xlink="http://www.w3.org/1999/xlink"><symbol  viewBox="0 0 104 42" id="ico-developer" xmlns="http://www.w3.org/2000/svg"><rect width="104" height="42" rx="5" fill="#333"/><path fill-rule="evenodd" clip-rule="evenodd" d="M33.397 27.116c-.196.724-.476 1.1-1.377 1.308-1.997.381-3.994.48-5.992.48-1.996 0-3.994-.099-5.99-.48-.902-.208-1.182-.584-1.378-1.308-.395-2.027-.496-4.055-.495-6.082-.001-2.027.1-4.054.495-6.082.196-.724.476-1.1 1.377-1.308 1.998-.381 3.995-.48 5.992-.48 1.997 0 3.994.099 5.99.48.903.208 1.182.585 1.378 1.308.395 2.028.496 4.055.496 6.082s-.1 4.055-.496 6.082zm2.66-6.091a36.516 36.516 0 0 0-.579-6.452 3.706 3.706 0 0 0-2.905-2.978 36.529 36.529 0 0 0-6.53-.595h-.029a36.521 36.521 0 0 0-6.53.595 3.706 3.706 0 0 0-2.905 2.977A36.506 36.506 0 0 0 16 21.026v.017c.001 2.15.192 4.302.579 6.453a3.706 3.706 0 0 0 2.905 2.977c2.177.396 4.353.593 6.53.595h.029a36.492 36.492 0 0 0 6.53-.595 3.706 3.706 0 0 0 2.905-2.977c.387-2.151.578-4.302.579-6.453v-.018z" fill="#fff"/><path fill-rule="evenodd" clip-rule="evenodd" d="M31.126 24.382l-3.315-3.34 1.487-1.497a1.24 1.24 0 0 0 .29-.293l1.24-1.248c.312-.3.559-.6.559-1.032 0-.681-.552-1.234-1.233-1.234-.388 0-.703.194-.964.434l-.008.012-1.569 1.58-.005-.005-1.528 1.54-1.528-1.54-.006.006-1.568-1.58-.008-.008c-.305-.289-.576-.438-.964-.438-.68 0-1.233.552-1.233 1.233 0 .432.272.723.56 1.031l1.238 1.249c.08.113.178.212.291.293l1.487 1.498-3.315 3.339-.002-.007c-.171.212-.26.5-.26.794 0 .681.553 1.233 1.234 1.233.435 0 .752-.245 1.036-.566l1.186-1.196c.156-.096.29-.225.388-.378l1.464-1.475 1.464 1.475c.099.153.232.282.387.378l1.187 1.196c.274.272.601.566 1.036.566.681 0 1.233-.552 1.233-1.233a1.24 1.24 0 0 0-.254-.784l-.007-.003zm53.851 1.291a1.166 1.166 0 0 0-.07-.292.374.374 0 0 0-.116-.162.253.253 0 0 0-.153-.052h-5.113V21.78h4.417a.269.269 0 0 0 .153-.046.339.339 0 0 0 .116-.154 1.04 1.04 0 0 0 .07-.283 3.51 3.51 0 0 0 .023-.445c0-.174-.008-.32-.023-.441a1.08 1.08 0 0 0-.07-.288.377.377 0 0 0-.116-.158.253.253 0 0 0-.153-.051h-4.417V16.98H84.6a.235.235 0 0 0 .149-.051.397.397 0 0 0 .11-.163 1.15 1.15 0 0 0 .07-.292c.016-.121.024-.268.024-.441a3.7 3.7 0 0 0-.023-.46 1.228 1.228 0 0 0-.07-.297.358.358 0 0 0-.111-.162.25.25 0 0 0-.149-.047h-6.784a.76.76 0 0 0-.515.181c-.14.12-.21.318-.21.59v10.471c0 .273.07.47.21.59a.76.76 0 0 0 .515.18h6.821a.251.251 0 0 0 .153-.05.37.37 0 0 0 .116-.163c.031-.074.055-.171.07-.292.016-.12.023-.27.023-.45s-.007-.33-.023-.45zM73.14 15.995a1.937 1.937 0 0 0-.429-.298 4.25 4.25 0 0 0-.771-.32 7.817 7.817 0 0 0-1.087-.252 8.446 8.446 0 0 0-1.38-.104c-.92 0-1.753.141-2.502.424a5.302 5.302 0 0 0-1.916 1.222 5.451 5.451 0 0 0-1.227 1.939c-.289.76-.433 1.619-.433 2.575 0 .925.135 1.754.406 2.484a5.05 5.05 0 0 0 1.172 1.858 5.06 5.06 0 0 0 1.871 1.163c.737.268 1.571.402 2.503.402a10.023 10.023 0 0 0 2.787-.397c.288-.084.53-.165.726-.244.195-.078.325-.184.388-.32a1.11 1.11 0 0 0 .094-.473v-4.802c0-.12-.015-.227-.045-.32a.673.673 0 0 0-.13-.24.558.558 0 0 0-.456-.198h-3.94a.228.228 0 0 0-.145.05.387.387 0 0 0-.109.153c-.03.07-.052.161-.067.275a3.348 3.348 0 0 0-.023.424c0 .325.03.555.09.69.06.135.144.203.253.203h2.21v2.863a2.89 2.89 0 0 1-.722.27c-.258.06-.52.09-.785.09-.54 0-1.035-.086-1.483-.261a3.071 3.071 0 0 1-1.15-.775 3.57 3.57 0 0 1-.744-1.277c-.177-.508-.266-1.095-.266-1.763 0-.607.087-1.162.26-1.664.176-.502.425-.932.75-1.29a3.335 3.335 0 0 1 1.172-.83 3.863 3.863 0 0 1 1.534-.292c.528 0 .993.054 1.393.162.4.108.744.226 1.032.352.289.126.52.243.695.351.174.109.3.163.379.163.054 0 .1-.015.14-.045a.338.338 0 0 0 .099-.158c.027-.075.048-.176.063-.302.015-.127.022-.277.022-.451 0-.3-.018-.528-.054-.681a.743.743 0 0 0-.175-.356zm-19.332 6.47l1.685-5.068h.01l1.686 5.068h-3.382zm3.482-6.892a.887.887 0 0 0-.134-.276.476.476 0 0 0-.257-.152 2.317 2.317 0 0 0-.503-.065c-.215-.01-.504-.014-.866-.014-.313 0-.565.005-.756.014-.19.01-.339.03-.446.065a.458.458 0 0 0-.235.147.916.916 0 0 0-.129.253l-3.677 10.578c-.073.215-.12.387-.138.516-.018.13.003.23.064.3.062.07.172.115.332.133.16.019.381.028.664.028.264 0 .477-.006.64-.018.163-.013.289-.036.378-.07a.394.394 0 0 0 .193-.138.726.726 0 0 0 .097-.216l.756-2.332h4.478l.801 2.396c.025.08.056.145.093.194.037.049.1.087.193.115.092.027.226.046.401.055a14.682 14.682 0 0 0 1.442-.009c.172-.015.291-.055.36-.12.067-.064.092-.161.073-.29a3.195 3.195 0 0 0-.138-.525l-3.686-10.57zM46.076 19.75a1.904 1.904 0 0 1-.38.677 1.672 1.672 0 0 1-.645.441c-.264.105-.59.158-.98.158h-1.647v-4.075h1.59c.255 0 .5.017.74.05.237.035.465.117.681.247.217.13.4.33.548.603.149.273.223.62.223 1.04 0 .31-.043.596-.13.859zm1.885-3.389a3.244 3.244 0 0 0-.943-.728 4.094 4.094 0 0 0-1.09-.395 8.635 8.635 0 0 0-.924-.14 9.673 9.673 0 0 0-.812-.032h-3.383c-.247 0-.447.073-.598.218-.152.146-.228.364-.228.655v10.806c0 .061.019.117.056.167a.38.38 0 0 0 .195.12c.093.031.218.056.376.075.157.018.354.027.59.027.24 0 .439-.009.594-.027a1.96 1.96 0 0 0 .37-.075.422.422 0 0 0 .2-.12.26.26 0 0 0 .06-.167v-3.834h1.554c.792 0 1.48-.093 2.066-.279a4.052 4.052 0 0 0 1.48-.812c.403-.356.71-.794.92-1.314.21-.52.315-1.117.315-1.792 0-.488-.068-.93-.204-1.323a3.046 3.046 0 0 0-.594-1.03z" fill="#fff"/></symbol><symbol  viewBox="0 0 19 18" id="ico-favorite" xmlns="http://www.w3.org/2000/svg"><path d="M9.491 2.322l.736-.797C11.378.292 12.826-.12 14.464.038c2.236.216 3.535 1.57 4.2 3.59.576 1.754.379 3.487-.342 5.17-.66 1.543-1.65 2.866-2.779 4.092-1.79 1.942-3.849 3.569-6.004 5.082a.44.44 0 0 1-.065.028c-.548-.404-1.114-.808-1.667-1.229-1.753-1.331-3.414-2.763-4.85-4.438C1.895 11.093.974 9.762.448 8.2c-.666-1.971-.635-3.916.403-5.765C1.52 1.242 2.513.395 3.884.132c1.922-.368 3.651 0 5.008 1.528.196.219.392.433.6.662z"/></symbol><symbol  viewBox="0 0 8 14" id="ico-fb" xmlns="http://www.w3.org/2000/svg"><path d="M7.994 0v2.438h-2.13a.65.65 0 0 0-.443.124.615.615 0 0 0-.24.382.862.862 0 0 0 0 .225v1.685h2.813V7.1H5.146v6.865H2.448v-6.82H.005V4.9h2.431V3.136c.03-.572.21-1.126.522-1.612A3.432 3.432 0 0 1 4.219.36 2.953 2.953 0 0 1 5.377.01h.104L7.994 0z" fill="#fff"/></symbol><symbol  viewBox="0 0 18 18" id="ico-gear" xmlns="http://www.w3.org/2000/svg"><g clip-path="url(#dclip0)"><path d="M17.552 10.59c-.5-.336-.996-.674-1.5-1.006a.317.317 0 0 1-.043-.034 7.015 7.015 0 0 0 0-1.115.367.367 0 0 1 .055-.045c.508-.334 1.012-.673 1.514-1.016.407-.278.519-.648.331-1.103-.22-.538-.445-1.076-.67-1.61-.214-.511-.543-.682-1.084-.575-.584.115-1.167.23-1.753.333a.217.217 0 0 1-.072-.002 7.11 7.11 0 0 0-.76-.758.49.49 0 0 1 .012-.148c.12-.577.235-1.153.34-1.731.09-.497-.088-.815-.55-1.008a204.75 204.75 0 0 0-1.63-.675c-.485-.2-.835-.094-1.13.34-.338.498-.676.994-1.009 1.495a.35.35 0 0 1-.048.06 7.203 7.203 0 0 0-1.103 0 .346.346 0 0 1-.055-.067c-.33-.502-.669-1-1.008-1.499C7.105.008 6.744-.1 6.274.093 5.74.312 5.21.534 4.68.756c-.522.218-.692.538-.58 1.097.116.583.231 1.166.336 1.751a.195.195 0 0 1 0 .048c-.281.239-.543.5-.783.78a.397.397 0 0 1-.06-.008c-.582-.12-1.167-.23-1.75-.344-.539-.102-.86.07-1.07.57L.107 6.24c-.205.491-.1.846.34 1.144.488.33.974.663 1.466.987a.5.5 0 0 1 .077.06 7.136 7.136 0 0 0-.002 1.123.445.445 0 0 1-.056.044 80.1 80.1 0 0 0-1.56 1.053c-.325.226-.456.588-.318.944.246.631.506 1.257.78 1.877a.778.778 0 0 0 .872.447c.535-.096 1.072-.186 1.6-.315a.9.9 0 0 1 .357-.027c.238.276.496.533.773.77a.643.643 0 0 1-.015.132c-.12.577-.234 1.153-.339 1.732-.087.484.093.807.541.995.555.233 1.11.463 1.666.69.12.041.242.076.366.104.3-.02.527-.148.72-.432.342-.503.682-1.007 1.02-1.512a.42.42 0 0 1 .038-.05 7.303 7.303 0 0 0 1.135 0 .32.32 0 0 1 .035.045c.338.513.681 1.022 1.029 1.53.246.36.611.496 1.002.345a48.06 48.06 0 0 0 1.843-.765.769.769 0 0 0 .455-.866c-.112-.636-.243-1.268-.356-1.904a.192.192 0 0 1 0-.052c.28-.239.54-.5.778-.779a.52.52 0 0 1 .133.013c.577.12 1.153.23 1.732.338.491.09.819-.09 1.011-.547.228-.543.453-1.086.676-1.63.2-.486.086-.847-.353-1.144zM9 12.152a3.156 3.156 0 0 1-3.095-3.767 3.152 3.152 0 0 1 4.301-2.298 3.154 3.154 0 0 1 1.024 5.142 3.155 3.155 0 0 1-2.23.923z"/></g><defs><clipPath id="dclip0"><path fill="#fff" d="M0 0h18v18H0z"/></clipPath></defs></symbol><symbol  viewBox="0 0 18 20" id="ico-lc" xmlns="http://www.w3.org/2000/svg"><path d="M18 19.897c-1.11 0-2.18-.003-3.25 0-3.8.012-7.599.032-11.397.036-.72 0-1.438-.067-2.157-.1-.207-.01-.34-.076-.336-.318.033-1.92.295-3.788 1.405-5.42.684-1.005 1.638-1.705 2.742-2.202a1.082 1.082 0 0 1 .937.012c.973.454 1.965.884 2.919 1.384.436.23.763.23 1.198 0 .919-.486 1.878-.895 2.814-1.35.469-.228.9-.142 1.335.085 1.771.918 2.932 2.316 3.429 4.272.296 1.175.31 2.363.361 3.6zm-8.57-9.53A5.183 5.183 0 1 0 9.43 0a5.183 5.183 0 0 0 0 10.367z"/></symbol><symbol  viewBox="0 0 18 11" id="ico-vk" xmlns="http://www.w3.org/2000/svg"><path d="M11 3.458c0 .438-.018.852-.02 1.26-.005.223.02.445.076.66.034.138.11.26.216.351a.209.209 0 0 0 .19.038.795.795 0 0 0 .307-.187c.21-.198.399-.419.565-.658a12.556 12.556 0 0 0 1.442-2.697c.066-.161.13-.32.192-.484a.477.477 0 0 1 .47-.33h3.055a.922.922 0 0 1 .246.068c.064.019.12.06.158.115a.31.31 0 0 1 .056.19c0 .173-.034.344-.098.504-.165.41-.373.799-.62 1.162-.46.721-.982 1.394-1.474 2.082-.164.23-.32.467-.467.706a.708.708 0 0 0-.113.451.73.73 0 0 0 .197.409c.18.196.361.39.553.574.513.47.995.976 1.442 1.513.208.255.388.533.536.83.036.08.06.164.073.251a.47.47 0 0 1-.213.505 1.047 1.047 0 0 1-.548.168c-.725.02-1.45.016-2.172.058a1.787 1.787 0 0 1-1.273-.448 5.994 5.994 0 0 1-.737-.741c-.246-.275-.474-.552-.737-.815a1.676 1.676 0 0 0-.376-.284.426.426 0 0 0-.558.09c-.122.15-.207.329-.248.52-.079.29-.123.59-.13.892a2.31 2.31 0 0 1-.022.224.523.523 0 0 1-.115.259.503.503 0 0 1-.23.157.962.962 0 0 1-.375.078h-.983a4.693 4.693 0 0 1-1.673-.33 6.424 6.424 0 0 1-2.516-1.764 16.11 16.11 0 0 1-1.818-2.501 35.74 35.74 0 0 1-2.212-4.318A.632.632 0 0 1 1 1.703a.223.223 0 0 1 .125-.186.852.852 0 0 1 .39-.096h2.443a.744.744 0 0 1 .653.504c.211.572.465 1.127.76 1.659.318.592.677 1.16 1.073 1.701.135.2.3.376.492.52a.39.39 0 0 0 .442.045.42.42 0 0 0 .17-.202c.089-.21.143-.434.162-.663a9.98 9.98 0 0 0 .032-1.603 5.847 5.847 0 0 0-.096-.95c-.015-.078-.042-.154-.057-.232a.522.522 0 0 0-.265-.338 1.23 1.23 0 0 0-.558-.189c-.056 0-.076-.03-.051-.08a.557.557 0 0 1 .083-.14c.18-.2.422-.33.686-.365A5.914 5.914 0 0 1 8.638 1c.43 0 .863 0 1.295.028.188.012.374.043.556.093a.65.65 0 0 1 .37.224.68.68 0 0 1 .155.411c.021.243.029.487.022.731-.005.33-.024.663-.037.97z" fill="#fff"/></symbol><symbol  viewBox="0 0 14 11" id="ico-yt" xmlns="http://www.w3.org/2000/svg"><path d="M7.031 11a22.446 22.446 0 0 1-5.754-.78c-.488-.13-.762-.466-.867-.954a17.683 17.683 0 0 1-.385-4.7A17.21 17.21 0 0 1 .422 1.7c.109-.484.4-.789.881-.918a22.95 22.95 0 0 1 3.93-.704A21.412 21.412 0 0 1 12.838.8c.54.152.767.56.855 1.09.252 1.51.366 3.03.277 4.554-.057.962-.193 1.92-.32 2.876-.065.476-.373.773-.834.897-1.887.51-3.83.774-5.785.783zM5.496 5.5v1.4c0 .29-.003.58 0 .87.001.154.055.286.198.362.133.072.244.011.356-.062 1.12-.74 2.24-1.478 3.36-2.216.3-.198.3-.518.002-.714l-1.154-.755c-.741-.486-1.483-.972-2.226-1.457-.212-.138-.417-.087-.497.129a.738.738 0 0 0-.038.252c-.002.73-.001 1.46-.001 2.19z" fill="#fff"/></symbol></svg>