<svg width="13" height="13" viewBox="0 0 13 13" fill="none" xmlns="http://www.w3.org/2000/svg">
<g clip-path="url(#clip0)">
<path d="M6.49987 0C3.82678 0 1.6521 2.17556 1.6521 4.84971C1.6521 8.83402 6.01734 12.7244 6.20324 12.8881C6.28798 12.9627 6.3939 13.0001 6.49987 13.0001C6.60584 13.0001 6.71177 12.9627 6.79655 12.8881C6.98236 12.7244 11.3476 8.83407 11.3476 4.84971C11.3476 2.17556 9.17297 0 6.49987 0ZM6.49987 3.48825C7.24241 3.48825 7.84649 4.09899 7.84649 4.84971C7.84649 5.60043 7.24241 6.21117 6.49987 6.21117C5.75734 6.21117 5.15326 5.60043 5.15326 4.84971C5.15326 4.09899 5.75734 3.48825 6.49987 3.48825Z" fill="#344AA3"/>
</g>
<defs>
<clipPath id="clip0">
<rect width="13" height="13" fill="white"/>
</clipPath>
</defs>
</svg>
