<svg width="13" height="13" viewBox="0 0 13 13" fill="none" xmlns="http://www.w3.org/2000/svg">
<g clip-path="url(#clip0)">
<path d="M13 2.46959C12.5215 2.68161 12.0081 2.8254 11.4687 2.88959C12.0195 2.55977 12.4411 2.03662 12.6409 1.41517C12.1243 1.72061 11.554 1.94239 10.9464 2.06262C10.4598 1.54354 9.76764 1.22021 8.99996 1.22021C7.52718 1.22021 6.33302 2.41437 6.33302 3.88634C6.33302 4.0951 6.35658 4.299 6.40208 4.49398C4.186 4.38268 2.22094 3.32095 0.905753 1.70761C0.675852 2.10079 0.545066 2.55894 0.545066 3.04799C0.545066 3.97326 1.01623 4.78967 1.7311 5.26731C1.29405 5.2527 0.883003 5.13247 0.523144 4.93263V4.96593C0.523144 6.25756 1.44273 7.33554 2.66205 7.58089C2.43865 7.641 2.20308 7.67431 1.95937 7.67431C1.78716 7.67431 1.62063 7.65725 1.45734 7.62475C1.79689 8.68487 2.78147 9.45577 3.94801 9.47691C3.03574 10.1918 1.88545 10.6166 0.636066 10.6166C0.420801 10.6166 0.208765 10.6036 0 10.5801C1.18035 11.338 2.58165 11.7799 4.08774 11.7799C8.9935 11.7799 11.6751 7.71656 11.6751 4.1926L11.6661 3.84736C12.1901 3.47365 12.6434 3.00412 13 2.46959Z" fill="#344AA3"/>
</g>
<defs>
<clipPath id="clip0">
<rect width="13" height="13" fill="white"/>
</clipPath>
</defs>
</svg>
