<svg width="19" height="19" viewBox="0 0 19 19" fill="none" xmlns="http://www.w3.org/2000/svg">
<g clip-path="url(#clip0)">
<path d="M17.4777 6.19995L17.4465 6.23897L17.4777 6.19995L9.81883 0.0620338C9.63247 -0.087426 9.36723 -0.087426 9.18087 0.0620338L1.52196 6.19995L1.52196 6.19995C1.40117 6.29677 1.33086 6.44308 1.33086 6.59797V18.5399C1.33086 18.8215 1.5592 19.05 1.84093 19.05H17.1588C17.4406 19.05 17.6689 18.8215 17.6689 18.5399V9.8834C17.6689 9.60167 17.4406 9.37333 17.1588 9.37333C16.8772 9.37333 16.6488 9.60175 16.6488 9.8834V18.0299H11.8119V12.9347C11.8119 12.653 11.5835 12.4246 11.3019 12.4246H7.69799C7.41634 12.4246 7.18792 12.653 7.18792 12.9347V17.0145C7.18792 17.2961 7.41634 17.5245 7.69799 17.5245C7.97964 17.5245 8.20806 17.2961 8.20806 17.0145V13.4447H10.7918V18.0299H2.351V6.84289L9.49985 1.11378L16.8398 6.99599C17.0597 7.17223 17.3807 7.13668 17.5568 6.91694L17.5178 6.88567L17.5568 6.91693C17.7329 6.6971 17.6976 6.37617 17.4777 6.19995Z" fill="white" stroke="white" stroke-width="0.1"/>
</g>
<defs>
<clipPath id="clip0">
<rect width="19" height="19" fill="white"/>
</clipPath>
</defs>
</svg>
