<svg width="27" height="27" viewBox="0 0 27 27" fill="none" xmlns="http://www.w3.org/2000/svg">
<g clip-path="url(#clip0)">
<path d="M26.3946 21.3377L22.2249 17.1675C21.3944 16.3403 20.019 16.3654 19.1595 17.2252L17.0588 19.3255C16.9261 19.2523 16.7887 19.1759 16.6443 19.0948C15.3177 18.3598 13.502 17.3523 11.5914 15.4403C9.67515 13.5243 8.66676 11.7058 7.92946 10.3784C7.85166 10.2378 7.77712 10.1022 7.7035 9.97342L9.1134 8.56561L9.80656 7.8716C10.6673 7.01059 10.6911 5.6356 9.86248 4.806L5.69276 0.635344C4.86417 -0.193094 3.48817 -0.167961 2.62738 0.693055L1.45221 1.87497L1.48433 1.90686C1.09028 2.40966 0.760996 2.98956 0.515955 3.61493C0.290074 4.21019 0.149442 4.77823 0.0851368 5.34743C-0.465448 9.9119 1.62038 14.0835 7.28106 19.7442C15.1058 27.5685 21.4116 26.9774 21.6836 26.9485C22.2761 26.8777 22.8439 26.7362 23.4209 26.5121C24.0409 26.2699 24.6204 25.9411 25.1229 25.5479L25.1486 25.5707L26.3391 24.4049C27.1981 23.544 27.2228 22.1686 26.3946 21.3377Z" fill="#344AA3"/>
</g>
<defs>
<clipPath id="clip0">
<rect width="27" height="27" fill="white"/>
</clipPath>
</defs>
</svg>
