<svg width="20" height="20" viewBox="0 0 20 20" fill="none" xmlns="http://www.w3.org/2000/svg">
<g clip-path="url(#clip0)">
<path d="M6.88703 16.7162L6.88779 16.7169C7.57509 17.3026 8.35359 17.9661 9.16099 18.6721C9.39317 18.8754 9.69107 18.9873 9.99998 18.9873C10.3087 18.9873 10.6068 18.8754 10.8388 18.6724C11.6481 17.9647 12.4278 17.3001 13.1163 16.7135L13.1163 16.7135L13.1225 16.7082C15.1323 14.9955 16.8774 13.5082 18.0935 12.0407C19.4578 10.3946 20.1 8.8245 20.1 7.10434C20.1 5.43828 19.5287 3.89725 18.487 2.7673C17.4326 1.62361 15.985 0.99375 14.413 0.99375C13.2359 0.99375 12.1572 1.36637 11.2094 2.09939C10.7651 2.44301 10.3603 2.85758 10 3.33663C9.63975 2.85757 9.23491 2.443 8.79072 2.0994L8.79072 2.09939C7.84293 1.36637 6.76422 0.99375 5.58715 0.99375C4.01493 0.99375 2.56756 1.62361 1.51309 2.7673L1.51308 2.7673C0.471385 3.89725 -0.1 5.43827 -0.1 7.10434C-0.1 8.82451 0.542353 10.3946 1.90664 12.0409L1.98288 11.9777L1.90664 12.0409C3.12308 13.5086 4.86893 14.9964 6.87964 16.7099L6.88353 16.7132L6.88428 16.7138L6.88703 16.7162ZM2.96258 11.1657L2.88558 11.2296L2.96258 11.1657C1.78738 9.74776 1.27141 8.49729 1.27141 7.10434C1.27141 5.7782 1.71722 4.56917 2.52133 3.69694C3.31309 2.83829 4.40109 2.36532 5.58715 2.36532C6.45324 2.36532 7.24803 2.6402 7.95166 3.18427C8.58048 3.6706 9.02025 4.28717 9.27888 4.72072L9.27889 4.72075C9.4318 4.97692 9.70182 5.13036 9.99998 5.13036C10.2981 5.13036 10.5682 4.97692 10.7211 4.72075L10.6352 4.66949L10.7211 4.72075C10.9799 4.28717 11.4196 3.67059 12.0483 3.18426C12.7519 2.6402 13.5467 2.36532 14.413 2.36532C15.5989 2.36532 16.687 2.83829 17.4786 3.69693C18.2827 4.56917 18.7285 5.7782 18.7285 7.10434C18.7285 8.49729 18.2126 9.74777 17.0375 11.1657C15.8985 12.5402 14.2022 13.986 12.2267 15.6697C11.554 16.2428 10.7938 16.8907 9.99843 17.5826C9.20763 16.892 8.44864 16.2452 7.77741 15.6731L7.77656 15.6724L7.77374 15.67C7.7736 15.6699 7.77345 15.6698 7.7733 15.6697C5.79781 13.9861 4.1015 12.5401 2.96258 11.1657Z" fill="#344AA3" stroke="#344AA3" stroke-width="0.2"/>
</g>
<defs>
<clipPath id="clip0">
<rect width="20" height="20" fill="white"/>
</clipPath>
</defs>
</svg>
