<svg width="15" height="15" viewBox="0 0 15 15" fill="none" xmlns="http://www.w3.org/2000/svg">
<g clip-path="url(#clip0)">
<path d="M14.9205 10.9497C14.9023 10.9105 14.8854 10.8781 14.8697 10.852C14.6094 10.3833 14.1121 9.80801 13.378 9.12593L13.3625 9.11031L13.3547 9.10265L13.3468 9.0948H13.339C13.0058 8.77719 12.7948 8.56363 12.7064 8.4543C12.5448 8.24602 12.5086 8.0352 12.5969 7.82159C12.6593 7.6602 12.8938 7.31937 13.2998 6.79862C13.5134 6.52264 13.6825 6.30145 13.8074 6.13481C14.7082 4.93724 15.0988 4.17197 14.9789 3.83871L14.9324 3.76083C14.9011 3.71395 14.8204 3.67106 14.6904 3.63194C14.5601 3.5929 14.3936 3.58645 14.1904 3.61246L11.9413 3.628C11.9048 3.61509 11.8528 3.61629 11.785 3.63194C11.7173 3.64759 11.6834 3.65544 11.6834 3.65544L11.6443 3.67499L11.6132 3.69849C11.5872 3.71403 11.5585 3.74136 11.5273 3.78042C11.4962 3.81934 11.4702 3.86503 11.4494 3.91708C11.2045 4.54708 10.9261 5.13282 10.6136 5.67427C10.421 5.99714 10.244 6.27694 10.0824 6.51386C9.92108 6.75069 9.78571 6.92519 9.67645 7.03704C9.56704 7.149 9.46829 7.2387 9.3796 7.30645C9.29106 7.37424 9.22346 7.40288 9.17666 7.3924C9.12975 7.38193 9.08557 7.37153 9.04375 7.36114C8.9709 7.31425 8.91231 7.25049 8.86813 7.16979C8.82376 7.0891 8.79389 6.98753 8.77827 6.86517C8.76273 6.74273 8.75354 6.63742 8.75092 6.54887C8.74848 6.46044 8.7496 6.33535 8.75488 6.17396C8.7603 6.01248 8.76273 5.90323 8.76273 5.84595C8.76273 5.64807 8.76659 5.43331 8.77433 5.20162C8.78221 4.96992 8.78858 4.78635 8.79392 4.65111C8.79922 4.51573 8.80169 4.3725 8.80169 4.22151C8.80169 4.07051 8.7925 3.95209 8.77433 3.86615C8.75639 3.78031 8.72884 3.69699 8.69254 3.61621C8.65602 3.53551 8.60257 3.47309 8.53244 3.42878C8.46216 3.38452 8.37479 3.3494 8.27082 3.3233C7.99484 3.26085 7.64342 3.22707 7.21639 3.22181C6.24802 3.21142 5.62579 3.27395 5.34984 3.40933C5.2405 3.46653 5.14156 3.54468 5.0531 3.64354C4.95935 3.75812 4.94628 3.82066 5.01395 3.83094C5.32639 3.87775 5.54758 3.98971 5.67776 4.16672L5.72467 4.26052C5.76116 4.32819 5.7976 4.448 5.83406 4.61979C5.87047 4.79157 5.89397 4.9816 5.90431 5.18977C5.9303 5.56992 5.9303 5.89532 5.90431 6.16602C5.87824 6.43683 5.85362 6.64765 5.83012 6.79865C5.80663 6.94964 5.7715 7.072 5.72467 7.16569C5.67776 7.2594 5.64655 7.31668 5.6309 7.33747C5.61528 7.35826 5.60226 7.37137 5.59192 7.37651C5.52425 7.40244 5.45386 7.41565 5.38102 7.41565C5.30807 7.41565 5.2196 7.37916 5.11549 7.30624C5.01141 7.23331 4.90338 7.13314 4.79142 7.00556C4.67946 6.87795 4.55319 6.69962 4.41256 6.47056C4.27205 6.24149 4.12625 5.97077 3.97525 5.65838L3.85032 5.43183C3.77223 5.28609 3.66554 5.07387 3.53017 4.79538C3.39471 4.51677 3.27498 4.24728 3.17089 3.98694C3.12929 3.87761 3.06678 3.79437 2.98349 3.73709L2.9444 3.71359C2.91841 3.6928 2.8767 3.67073 2.81947 3.6472C2.76216 3.6237 2.70237 3.60685 2.63984 3.59649L0.499929 3.61202C0.281258 3.61202 0.132888 3.66156 0.0547635 3.7605L0.0234974 3.80731C0.00787807 3.83338 0 3.87501 0 3.93232C0 3.9896 0.0156194 4.0599 0.0468854 4.14314C0.359273 4.87733 0.698987 5.5854 1.06603 6.26745C1.43307 6.94951 1.75202 7.49892 2.02269 7.9152C2.29342 8.33178 2.56937 8.72494 2.85055 9.0945C3.13172 9.4642 3.31784 9.70111 3.4089 9.8052C3.50008 9.90947 3.57169 9.98743 3.62375 10.0395L3.81903 10.2269C3.94398 10.3519 4.12748 10.5016 4.36959 10.6759C4.61176 10.8504 4.87986 11.0222 5.17403 11.1916C5.46825 11.3606 5.81054 11.4986 6.20108 11.6053C6.59156 11.7122 6.97162 11.755 7.34132 11.7343H8.23947C8.42163 11.7186 8.55963 11.6613 8.65343 11.5625L8.6845 11.5233C8.7054 11.4923 8.72496 11.444 8.74301 11.379C8.76128 11.3139 8.77037 11.2422 8.77037 11.1642C8.76503 10.9404 8.78207 10.7387 8.82103 10.5591C8.85995 10.3795 8.90432 10.2441 8.95394 10.153C9.00354 10.0619 9.0595 9.985 9.12179 9.92268C9.18421 9.86023 9.22869 9.8224 9.25479 9.80938C9.28072 9.79628 9.30142 9.78739 9.31704 9.78205C9.442 9.74042 9.58906 9.78074 9.75843 9.90321C9.92768 10.0256 10.0864 10.1766 10.2349 10.3562C10.3833 10.5359 10.5616 10.7375 10.7698 10.9614C10.9782 11.1853 11.1603 11.3518 11.3165 11.4613L11.4726 11.555C11.5769 11.6175 11.7123 11.6748 11.8789 11.7268C12.0453 11.7789 12.191 11.7919 12.3162 11.7659L14.3154 11.7347C14.5131 11.7347 14.667 11.702 14.7762 11.637C14.8855 11.5719 14.9505 11.5002 14.9714 11.4222C14.9923 11.3442 14.9935 11.2556 14.9754 11.1566C14.9569 11.0578 14.9386 10.9887 14.9205 10.9497Z" fill="#344AA3"/>
</g>
<defs>
<clipPath id="clip0">
<rect width="15" height="15" fill="white"/>
</clipPath>
</defs>
</svg>
