<svg width="15" height="15" viewBox="0 0 15 15" fill="none" xmlns="http://www.w3.org/2000/svg">
<g clip-path="url(#clip0)">
<path d="M5.26278 8.49005H7.60631C7.19494 9.65307 6.08083 10.4869 4.77649 10.4773C3.19386 10.4656 1.88524 9.19955 1.8238 7.61806C1.75794 5.92282 3.11799 4.52268 4.79885 4.52268C5.5674 4.52268 6.26875 4.81551 6.79749 5.29536C6.92273 5.40904 7.11337 5.40976 7.23655 5.29382L8.09731 4.4837C8.23191 4.35698 8.2324 4.143 8.09819 4.01587C7.25966 3.22146 6.1348 2.7263 4.89437 2.70208C2.24865 2.65042 0.0185483 4.81964 0.000119377 7.46582C-0.0184733 10.1319 2.13713 12.2989 4.79885 12.2989C7.35858 12.2989 9.44966 10.2946 9.58973 7.76994C9.59346 7.73829 9.59591 6.66853 9.59591 6.66853H5.26278C5.08517 6.66853 4.94121 6.81249 4.94121 6.9901V8.16847C4.94121 8.34609 5.0852 8.49005 5.26278 8.49005Z" fill="#344AA3"/>
<path d="M13.5669 6.77591V5.62458C13.5669 5.46893 13.4407 5.34277 13.2851 5.34277H12.316C12.1604 5.34277 12.0342 5.46893 12.0342 5.62458V6.77591H10.8829C10.7272 6.77591 10.6011 6.90206 10.6011 7.05771V8.02675C10.6011 8.18239 10.7272 8.30855 10.8829 8.30855H12.0342V9.45988C12.0342 9.61553 12.1604 9.74168 12.316 9.74168H13.2851C13.4407 9.74168 13.5669 9.61553 13.5669 9.45988V8.30855H14.7182C14.8738 8.30855 15 8.18239 15 8.02675V7.05771C15 6.90206 14.8738 6.77591 14.7182 6.77591H13.5669Z" fill="#344AA3"/>
</g>
<defs>
<clipPath id="clip0">
<rect width="15" height="15" fill="white"/>
</clipPath>
</defs>
</svg>
