<svg width="28" height="29" viewBox="0 0 28 29" fill="none" xmlns="http://www.w3.org/2000/svg">
<path d="M27.8459 12.857L23.655 8.9654V2.59003H18.8274V4.48294L13.9998 0L0.154095 12.857C-0.0409413 13.0385 -0.0525276 13.3441 0.128992 13.5396C0.310028 13.7346 0.615617 13.7457 0.811619 13.5647L2.41391 12.0768V28.1765H10.1381H14.0002H17.8624H25.5866V12.0763L27.1889 13.5642C27.2816 13.6506 27.3998 13.6931 27.5176 13.6931C27.6475 13.6931 27.7764 13.6415 27.871 13.5391C28.0525 13.3441 28.0409 13.0385 27.8459 12.857ZM19.7929 3.55555H22.6895V8.06891L19.7929 5.37944V3.55555ZM11.1032 28.1765V17.0425C11.1032 16.7929 11.3059 16.5902 11.5555 16.5902H16.444C16.6936 16.5902 16.8963 16.7929 16.8963 17.0425V28.1765H14.0002H11.1032ZM24.6206 27.211H17.8619V17.0425C17.8619 16.2604 17.2261 15.6246 16.444 15.6246H11.5555C10.7734 15.6246 10.1376 16.2604 10.1376 17.0425V27.211H3.37896V11.1798L13.9998 1.31746L20.8936 7.71891L23.655 10.2829L24.6206 11.1794V27.211Z" fill="#344AA3"/>
</svg>
