<svg width="11" height="13" viewBox="0 0 11 13" fill="none" xmlns="http://www.w3.org/2000/svg">
<path d="M5.50012 0C2.82702 0 0.652344 2.17556 0.652344 4.84971C0.652344 8.83402 5.01759 12.7244 5.20348 12.8881C5.28822 12.9627 5.39415 13.0001 5.50012 13.0001C5.60609 13.0001 5.71201 12.9627 5.7968 12.8881C5.98261 12.7244 10.3479 8.83407 10.3479 4.84971C10.3479 2.17556 8.17321 0 5.50012 0ZM5.50012 3.48825C6.24265 3.48825 6.84673 4.09899 6.84673 4.84971C6.84673 5.60043 6.24265 6.21117 5.50012 6.21117C4.75759 6.21117 4.1535 5.60043 4.1535 4.84971C4.1535 4.09899 4.75759 3.48825 5.50012 3.48825Z" fill="#872232"/>
</svg>
