<svg width="12" height="11" viewBox="0 0 12 11" fill="none" xmlns="http://www.w3.org/2000/svg">
<g clip-path="url(#clip0)">
<path d="M5.99995 -0.05C4.32205 -0.05 2.95 1.20174 2.95 2.74996C2.95 4.29818 4.32205 5.54991 5.99995 5.54991C7.67786 5.54991 9.04991 4.29818 9.04991 2.74996C9.04991 1.20174 7.67786 -0.05 5.99995 -0.05ZM5.99995 4.07494C5.19615 4.07494 4.54998 3.47664 4.54998 2.74996C4.54998 2.02328 5.19615 1.42498 5.99995 1.42498C6.80376 1.42498 7.44993 2.02328 7.44993 2.74996C7.44993 3.47664 6.80376 4.07494 5.99995 4.07494Z" fill="#344AA3" stroke="#344AA3" stroke-width="0.1"/>
<path d="M3.11694 5.38692C2.80458 5.10059 2.30124 5.10059 1.98888 5.38692C1.67399 5.67557 1.67406 6.14411 1.98884 6.43339L1.98888 6.43343C2.90249 7.27091 4.05282 7.75841 5.24314 7.90376L3.18586 9.7896C2.871 10.0782 2.871 10.5468 3.18586 10.8354C3.49822 11.1218 4.00156 11.1218 4.31392 10.8354L5.99986 9.28998L7.68579 10.8354C7.84202 10.9786 8.04638 11.05 8.24982 11.05C8.45326 11.05 8.65762 10.9786 8.81385 10.8354C9.12871 10.5468 9.12871 10.0782 8.81385 9.7896L6.75657 7.90376C7.94689 7.75841 9.09722 7.27091 10.0108 6.43343C10.3257 6.14481 10.3257 5.67559 10.0116 5.38696L10.0116 5.38692C9.69922 5.10059 9.19588 5.10059 8.88352 5.38692C7.29467 6.84336 4.70655 6.84338 3.11694 5.38692ZM3.11694 5.38692L3.08315 5.42377M3.11694 5.38692C3.11693 5.38691 3.11693 5.38691 3.11693 5.38691L3.08315 5.42377M3.08315 5.42377C4.69188 6.89775 7.30933 6.89775 8.91731 5.42377C9.21055 5.15497 9.68455 5.15497 9.97779 5.42377L5.29178 7.85917C4.09571 7.7215 2.93879 7.23635 2.02267 6.39657C1.72942 6.12708 1.72942 5.69258 2.02267 5.42377C2.31591 5.15497 2.78991 5.15497 3.08315 5.42377Z" fill="#344AA3" stroke="#344AA3" stroke-width="0.1"/>
</g>
<defs>
<clipPath id="clip0">
<rect width="12" height="11" fill="white"/>
</clipPath>
</defs>
</svg>
