<svg width="27" height="27" viewBox="0 0 27 27" fill="none" xmlns="http://www.w3.org/2000/svg">
<g clip-path="url(#clip0)">
<path d="M13.5 0C7.94817 0 3.43153 4.51846 3.43153 10.0725C3.43153 18.3476 12.4978 26.4275 12.8839 26.7675C13.0599 26.9225 13.2799 27.0002 13.5 27.0002C13.7201 27.0002 13.9401 26.9226 14.1162 26.7675C14.5021 26.4276 23.5684 18.3477 23.5684 10.0725C23.5684 4.51846 19.0518 0 13.5 0ZM13.5 7.24483C15.0422 7.24483 16.2968 8.51329 16.2968 10.0725C16.2968 11.6317 15.0422 12.9001 13.5 12.9001C11.9578 12.9001 10.7032 11.6317 10.7032 10.0725C10.7032 8.51329 11.9578 7.24483 13.5 7.24483Z" fill="#344AA3"/>
</g>
<defs>
<clipPath id="clip0">
<rect width="27" height="27" fill="white"/>
</clipPath>
</defs>
</svg>
