<svg width="30" height="30" viewBox="0 0 30 30" fill="none" xmlns="http://www.w3.org/2000/svg">
<rect width="30" height="30" rx="4" fill="#344AA3"/>
<g clip-path="url(#clip0)">
<path d="M19.9404 10.7341L19.9757 10.7695L19.9404 10.7341L12.7874 17.8872L10.0596 15.1595C9.8058 14.9056 9.39427 14.9057 9.14039 15.1595L9.17575 15.1948L9.14039 15.1595C8.88653 15.4133 8.88654 15.8249 9.14039 16.0787L12.3277 19.266C12.3277 19.266 12.3277 19.266 12.3278 19.266C12.5815 19.5199 12.9933 19.5197 13.247 19.266L20.8596 11.6534C21.1135 11.3995 21.1135 10.988 20.8596 10.7341C20.6058 10.4803 20.1943 10.4803 19.9404 10.7341Z" fill="white" stroke="white" stroke-width="0.1"/>
</g>
<defs>
<clipPath id="clip0">
<rect width="12" height="12" fill="white" transform="translate(9 9)"/>
</clipPath>
</defs>
</svg>
