<svg width="14" height="12" viewBox="0 0 14 12" fill="none" xmlns="http://www.w3.org/2000/svg">
<path d="M1.34372 3.8911C1.52082 4.01607 2.05466 4.38723 2.94527 5.0044C3.8359 5.62156 4.51819 6.09676 4.99216 6.43002C5.04423 6.46655 5.15486 6.54596 5.32411 6.66836C5.49338 6.79084 5.63403 6.88981 5.74595 6.96531C5.85795 7.04078 5.99334 7.12544 6.15227 7.21916C6.31114 7.3128 6.46091 7.38323 6.60153 7.42986C6.74218 7.47687 6.87238 7.50016 6.99215 7.50016H7H7.00788C7.12765 7.50016 7.2579 7.47685 7.39855 7.42986C7.53912 7.38323 7.68902 7.31272 7.84776 7.21916C8.00658 7.12533 8.14197 7.04075 8.25397 6.96531C8.36597 6.88981 8.50651 6.79084 8.67584 6.66836C8.84505 6.54585 8.95582 6.46655 9.0079 6.43002C9.48698 6.09676 10.7058 5.25037 12.6641 3.89094C13.0443 3.62543 13.3619 3.30505 13.6171 2.93003C13.8725 2.55518 14 2.16193 14 1.75052C14 1.40672 13.8762 1.11242 13.6288 0.867655C13.3814 0.622832 13.0884 0.500488 12.75 0.500488H1.24995C0.848933 0.500488 0.540324 0.635884 0.324178 0.906676C0.108059 1.17752 0 1.51607 0 1.92228C0 2.2504 0.143277 2.60596 0.429693 2.98875C0.716082 3.37157 1.02086 3.67238 1.34372 3.8911Z" fill="#872232"/>
<path d="M13.2186 4.72654C11.5105 5.88268 10.2134 6.7812 9.32814 7.42189C9.03127 7.64055 8.79045 7.81125 8.60549 7.93357C8.42054 8.05596 8.17457 8.18096 7.86722 8.3085C7.55998 8.43624 7.27365 8.49991 7.00798 8.49991H7.00001H6.99216C6.72654 8.49991 6.44004 8.43624 6.1328 8.3085C5.82556 8.18096 5.57943 8.05596 5.39453 7.93357C5.20969 7.81125 4.96878 7.64055 4.67194 7.42189C3.96877 6.9063 2.67453 6.00773 0.789141 4.72654C0.492191 4.52875 0.229171 4.30204 0 4.04688V10.2498C0 10.5938 0.122343 10.8879 0.367166 11.1327C0.611934 11.3776 0.906258 11.5 1.25003 11.5H12.7501C13.0937 11.5 13.388 11.3776 13.6328 11.1327C13.8777 10.8878 14 10.5938 14 10.2498V4.04688C13.776 4.29676 13.5157 4.52347 13.2186 4.72654Z" fill="#872232"/>
</svg>
