<svg width="13" height="13" viewBox="0 0 13 13" fill="none" xmlns="http://www.w3.org/2000/svg">
<path d="M12.7085 10.2738L10.7009 8.26593C10.301 7.86765 9.6388 7.87975 9.22498 8.29371L8.21352 9.30495C8.14962 9.26973 8.08348 9.23294 8.01394 9.19391C7.37521 8.84 6.501 8.35493 5.58108 7.43433C4.65844 6.5118 4.17291 5.63625 3.81792 4.99711C3.78046 4.9294 3.74457 4.86412 3.70912 4.80212L4.38796 4.12429L4.7217 3.79013C5.13616 3.37557 5.14758 2.71354 4.74863 2.3141L2.74099 0.306009C2.34204 -0.0928681 1.67952 -0.0807674 1.26507 0.333796L0.699243 0.902868L0.714705 0.918218C0.524977 1.16031 0.366435 1.43952 0.248452 1.74062C0.139695 2.02723 0.0719827 2.30073 0.0410212 2.57479C-0.224075 4.7725 0.780214 6.78104 3.50573 9.50659C7.27321 13.2738 10.3093 12.9892 10.4403 12.9753C10.7256 12.9412 10.9989 12.8731 11.2768 12.7652C11.5753 12.6486 11.8543 12.4903 12.0962 12.3009L12.1086 12.3119L12.6818 11.7506C13.0954 11.3361 13.1073 10.6739 12.7085 10.2738Z" fill="#872232"/>
</svg>
