<svg width="19" height="19" viewBox="0 0 19 19" fill="none" xmlns="http://www.w3.org/2000/svg">
<g clip-path="url(#clip0)">
<path d="M18.9044 17.9603L14.3527 13.4086C15.5701 11.9767 16.3048 10.1235 16.3048 8.10133C16.3048 3.57622 12.6243 -0.1 8.10352 -0.1C3.57842 -0.1 -0.0978027 3.5805 -0.0978027 8.10133C-0.0978027 12.6222 3.58266 16.3027 8.10352 16.3027C10.1257 16.3027 11.9789 15.5679 13.4108 14.3505L17.9625 18.9022C18.0907 19.0304 18.2635 19.1 18.4334 19.1C18.6014 19.1 18.7753 19.0359 18.905 18.9015C19.1625 18.6433 19.1623 18.2182 18.9044 17.9603ZM1.23546 8.10133C1.23546 4.31447 4.31659 1.23747 8.09931 1.23747C11.8862 1.23747 14.9632 4.3186 14.9632 8.10133C14.9632 11.8841 11.8861 14.9694 8.09931 14.9694C4.31666 14.9694 1.23546 11.8883 1.23546 8.10133Z" fill="#344AA3" stroke="#344AA3" stroke-width="0.2"/>
</g>
<defs>
<clipPath id="clip0">
<rect width="19" height="19" fill="white"/>
</clipPath>
</defs>
</svg>
