<svg width="27" height="23" viewBox="0 0 27 23" fill="none" xmlns="http://www.w3.org/2000/svg">
<path d="M2.59147 7.4326C2.93301 7.67361 3.96256 8.38942 5.68016 9.57966C7.39781 10.7699 8.71365 11.6864 9.62773 12.3291C9.72816 12.3995 9.94152 12.5527 10.2679 12.7887C10.5944 13.0249 10.8656 13.2158 11.0815 13.3614C11.2975 13.507 11.5586 13.6703 11.8651 13.851C12.1715 14.0316 12.4603 14.1674 12.7315 14.2573C13.0028 14.348 13.2539 14.3929 13.4849 14.3929H13.5H13.5152C13.7462 14.3929 13.9974 14.348 14.2686 14.2573C14.5397 14.1674 14.8288 14.0314 15.135 13.851C15.4413 13.67 15.7024 13.5069 15.9184 13.3614C16.1344 13.2158 16.4054 13.0249 16.732 12.7887C17.0583 12.5525 17.2719 12.3995 17.3724 12.3291C18.2963 11.6864 20.647 10.054 24.4236 7.43228C25.1569 6.92022 25.7694 6.30236 26.2615 5.5791C26.754 4.85617 27 4.09777 27 3.30433C27 2.64129 26.7613 2.07372 26.2841 1.60166C25.807 1.1295 25.2419 0.893555 24.5892 0.893555H2.41061C1.63723 0.893555 1.04205 1.15468 0.625201 1.67692C0.2084 2.19926 0 2.85217 0 3.63558C0 4.26838 0.276319 4.95412 0.828693 5.69236C1.38101 6.43065 1.9688 7.01078 2.59147 7.4326Z" fill="#344AA3"/>
<path d="M25.4931 9.04417C22.1988 11.2739 19.6973 13.0067 17.99 14.2424C17.4175 14.6641 16.953 14.9933 16.5963 15.2292C16.2396 15.4652 15.7652 15.7063 15.1725 15.9523C14.58 16.1986 14.0278 16.3214 13.5154 16.3214H13.5H13.4849C12.9726 16.3214 12.4201 16.1986 11.8275 15.9523C11.235 15.7063 10.7603 15.4652 10.4037 15.2292C10.0473 14.9933 9.58264 14.6641 9.01017 14.2424C7.65406 13.248 5.15801 11.5151 1.52191 9.04417C0.949224 8.66273 0.441972 8.22551 0 7.7334V19.6962C0 20.3596 0.235947 20.9268 0.708106 21.3989C1.18016 21.8712 1.74778 22.1073 2.41077 22.1073H24.5894C25.2522 22.1073 25.8198 21.8712 26.2919 21.3989C26.7642 20.9267 27 20.3596 27 19.6962V7.7334C26.568 8.21532 26.0659 8.65254 25.4931 9.04417Z" fill="#344AA3"/>
</svg>
