<svg width="13" height="13" viewBox="0 0 13 13" fill="none" xmlns="http://www.w3.org/2000/svg">
<path d="M9.05122 0.85H4.29626C2.39585 0.85 0.85 2.39585 0.85 4.29626V9.0512C0.85 10.9516 2.39585 12.4975 4.29626 12.4975H9.0512C10.9516 12.4975 12.4975 10.9516 12.4975 9.05122V4.29626C12.4975 2.39585 10.9516 0.85 9.05122 0.85ZM11.3109 9.0512C11.3109 10.2971 10.2971 11.3109 9.05122 11.3109H4.29626C3.05036 11.3109 2.03652 10.2971 2.03652 9.05122V4.29626C2.03652 3.05036 3.05036 2.03652 4.29626 2.03652H9.0512C10.2971 2.03652 11.3109 3.05036 11.3109 4.29626V9.0512Z" fill="#344AA3" stroke="#344AA3" stroke-width="0.3"/>
<path d="M6.67373 3.46523C4.90441 3.46523 3.46523 4.90441 3.46523 6.67373C3.46523 8.44304 4.90441 9.88222 6.67373 9.88222C8.44304 9.88222 9.88222 8.44304 9.88222 6.67373C9.88222 4.90441 8.44304 3.46523 6.67373 3.46523ZM6.67373 8.6957C5.55895 8.6957 4.65175 7.78851 4.65175 6.67373C4.65175 5.55895 5.55895 4.65175 6.67373 4.65175C7.78851 4.65175 8.6957 5.55895 8.6957 6.67373C8.6957 7.78851 7.78851 8.6957 6.67373 8.6957Z" fill="#344AA3" stroke="#344AA3" stroke-width="0.3"/>
<path d="M9.77651 4.16396C10.1042 4.16396 10.3698 3.89835 10.3698 3.5707C10.3698 3.24305 10.1042 2.97744 9.77651 2.97744C9.44886 2.97744 9.18325 3.24305 9.18325 3.5707C9.18325 3.89835 9.44886 4.16396 9.77651 4.16396Z" fill="#344AA3" stroke="#344AA3" stroke-width="0.3"/>
</svg>
