<svg width="38" height="50" viewBox="0 0 38 50" fill="none" xmlns="http://www.w3.org/2000/svg">
<path d="M24.2259 3.32393H24.1052L24.176 3.39473V11.0477C24.176 12.2364 25.1428 13.2033 26.3314 13.2033H34.0055H34.1262L34.0408 13.118L24.276 3.35331V3.32393H24.226H24.2259ZM22.2994 1.97637V1.92637H22.2494H4.70313C3.51448 1.92637 2.54746 2.89338 2.54746 4.08203V45.918C2.54746 47.1066 3.51448 48.0736 4.70313 48.0736H33.2973C34.486 48.0736 35.4529 47.1066 35.4529 45.918V15.1299V15.0799H35.4029H26.3313C24.1081 15.0799 22.2994 13.2711 22.2994 11.0479V1.97637ZM23.9011 0.324808L37.0546 13.4783C37.2305 13.6542 37.3293 13.8929 37.3293 14.1417V45.918C37.3293 48.1412 35.5205 49.95 33.2973 49.95H4.70313C2.47986 49.95 0.671094 48.1412 0.671094 45.918V4.08203C0.671094 1.85877 2.47986 0.05 4.70313 0.05H23.2376C23.4865 0.05 23.7251 0.148833 23.9011 0.324808Z" fill="#344AA3" stroke="white" stroke-width="0.1"/>
<path d="M11.0951 25.1489H26.9055C27.4237 25.1489 27.8437 25.569 27.8437 26.0871C27.8437 26.6052 27.4237 27.0252 26.9055 27.0252H11.0951C10.577 27.0252 10.1569 26.6052 10.1569 26.0871C10.1569 25.569 10.577 25.1489 11.0951 25.1489Z" fill="#344AA3" stroke="white" stroke-width="0.1"/>
<path d="M11.0951 29.5625H26.9055C27.4237 29.5625 27.8437 29.9825 27.8437 30.5006C27.8437 31.0187 27.4237 31.4388 26.9055 31.4388H11.0951C10.577 31.4388 10.1569 31.0187 10.1569 30.5006C10.1569 29.9825 10.577 29.5625 11.0951 29.5625Z" fill="#344AA3" stroke="white" stroke-width="0.1"/>
<path d="M11.0951 33.9761H26.9055C27.4237 33.9761 27.8437 34.3962 27.8437 34.9143C27.8437 35.4324 27.4237 35.8525 26.9055 35.8525H11.0951C10.577 35.8525 10.1569 35.4324 10.1569 34.9143C10.1569 34.3962 10.577 33.9761 11.0951 33.9761Z" fill="#344AA3" stroke="white" stroke-width="0.1"/>
<path d="M11.0951 38.3898H21.7671C22.2854 38.3898 22.7053 38.8099 22.7053 39.328C22.7053 39.8461 22.2854 40.2662 21.7671 40.2662H11.0951C10.577 40.2662 10.1569 39.8461 10.1569 39.328C10.1569 38.8099 10.577 38.3898 11.0951 38.3898Z" fill="#344AA3" stroke="white" stroke-width="0.1"/>
</svg>
