<svg width="50" height="50" viewBox="0 0 50 50" fill="none" xmlns="http://www.w3.org/2000/svg">
<g clip-path="url(#clip0)">
<path d="M42.4997 38.3334C40.2022 38.3334 38.333 40.2025 38.333 42.5001C38.333 44.7976 40.2022 46.6668 42.4997 46.6668C44.7972 46.6668 46.6664 44.7976 46.6664 42.5001C46.6664 40.2025 44.7972 38.3334 42.4997 38.3334ZM42.4997 45.0001C41.1214 45.0001 39.9997 43.8784 39.9997 42.5001C39.9997 41.1218 41.1214 40.0001 42.4997 40.0001C43.878 40.0001 44.9997 41.1218 44.9997 42.5001C44.9997 43.8784 43.878 45.0001 42.4997 45.0001Z" fill="#344AA3"/>
<path d="M48.3337 37.7957V9.99995C48.3337 9.08081 47.5862 8.33325 46.667 8.33325H38.3337C37.4145 8.33325 36.667 9.08071 36.667 9.99995V32.4999C36.667 32.9599 37.0395 33.3333 37.5003 33.3333H39.167C39.6278 33.3333 40.0003 32.9599 40.0003 32.4999C40.0003 32.04 39.6278 31.6666 39.167 31.6666H38.3337V30H39.167C39.6278 30 40.0003 29.6266 40.0003 29.1666C40.0003 28.7067 39.6278 28.3333 39.167 28.3333H38.3337V26.6666H40.8337C41.2945 26.6666 41.667 26.2933 41.667 25.8333C41.667 25.3734 41.2945 25 40.8337 25H38.3337V23.3333H39.167C39.6278 23.3333 40.0003 22.9599 40.0003 22.4999C40.0003 22.04 39.6278 21.6666 39.167 21.6666H38.3337V20H39.167C39.6278 20 40.0003 19.6266 40.0003 19.1666C40.0003 18.7067 39.6278 18.3333 39.167 18.3333H38.3337V16.6667H39.167C39.6278 16.6667 40.0003 16.2933 40.0003 15.8333C40.0003 15.3734 39.6278 15 39.167 15H38.3337V13.3333H40.8337C41.2945 13.3333 41.667 12.96 41.667 12.5C41.667 12.0401 41.2945 11.6667 40.8337 11.6667H38.3337V9.99995H46.667V36.2683C45.4736 35.4674 44.042 35 42.5003 35C38.3645 35 35.0003 38.365 35.0003 42.5C35.0003 44.0408 35.4687 45.4741 36.2678 46.6666H13.3337V38.3333H15.0004V40.8333C15.0004 41.2933 15.3737 41.6666 15.8337 41.6666C16.2937 41.6666 16.667 41.2933 16.667 40.8333V38.3333H18.3337V39.1666C18.3337 39.6266 18.707 40 19.167 40C19.627 40 20.0003 39.6266 20.0003 39.1666V38.3333H21.667V39.1666C21.667 39.6266 22.0403 40 22.5003 40C22.9603 40 23.3336 39.6266 23.3336 39.1666V38.3333H25.0004V39.1666C25.0004 39.6266 25.3737 40 25.8337 40C26.2945 40 26.667 39.6266 26.667 39.1666V38.3333H28.3337V40.8333C28.3337 41.2933 28.7062 41.6666 29.167 41.6666C29.6278 41.6666 30.0003 41.2933 30.0003 40.8333V38.3333H31.667V39.1666C31.667 39.6266 32.0395 40 32.5003 40C32.9611 40 33.3336 39.6266 33.3336 39.1666V37.5C33.3336 37.04 32.9611 36.6667 32.5003 36.6667H13.3337C12.3679 36.6667 11.667 37.3675 11.667 38.3333V46.6666C11.667 47.6325 12.3679 48.3333 13.3337 48.3333H37.7962C39.0837 49.3733 40.7195 50 42.5004 50C46.6362 50 50.0004 46.6349 50.0004 42.5C50.0004 40.7191 49.3737 39.0841 48.3337 37.7957ZM42.5004 48.3333C39.2846 48.3333 36.6671 45.7166 36.6671 42.5C36.6671 39.2833 39.2846 36.6667 42.5004 36.6667C45.7162 36.6667 48.3337 39.2833 48.3337 42.5C48.3337 45.7166 45.7162 48.3333 42.5004 48.3333Z" fill="#344AA3"/>
<path d="M43.3333 5.8333C43.3333 5.37334 42.9608 5 42.5 5H10C10 2.24248 7.75752 0 5 0C2.24248 0 0 2.24248 0 5V45C0 47.7575 2.24248 50 5 50H9.1667C9.62666 50 10 49.6267 10 49.1667C10 48.7067 9.62666 48.3334 9.1667 48.3334H5C3.16162 48.3334 1.6667 46.8384 1.6667 45.0001C1.6667 43.1618 3.16172 41.6668 5 41.6668C6.83828 41.6668 8.3333 43.1618 8.3333 45.0001C8.3333 45.4601 8.70664 45.8334 9.1666 45.8334C9.62656 45.8334 9.9999 45.4601 9.9999 45.0001V6.6667H42.4999C42.9608 6.6667 43.3333 6.29336 43.3333 5.8333ZM8.3333 41.2833C7.44746 40.4884 6.28164 40 5 40C3.71836 40 2.55254 40.4884 1.6667 41.2833V5C1.6667 3.16162 3.16172 1.6667 5 1.6667C6.83828 1.6667 8.3333 3.16162 8.3333 5V41.2833Z" fill="#344AA3"/>
<path d="M31.9112 11.4225C32.0737 11.585 32.2871 11.6666 32.5004 11.6666C32.7137 11.6666 32.927 11.585 33.0895 11.4225C33.4154 11.0966 33.4154 10.5699 33.0895 10.2442L31.4237 8.57835C31.3462 8.50081 31.2546 8.43997 31.152 8.39749C30.9487 8.31331 30.7187 8.31331 30.5154 8.39749C30.4129 8.43997 30.3213 8.50081 30.2437 8.57835L28.5779 10.2442C28.252 10.57 28.252 11.0967 28.5779 11.4225C28.9038 11.7483 29.4304 11.7483 29.7562 11.4225L30.0004 11.1783V30.4883L29.7562 30.2442C29.4303 29.9184 28.9037 29.9184 28.5779 30.2442C28.252 30.5701 28.252 31.0967 28.5779 31.4225L30.2437 33.0883C30.3213 33.1659 30.4129 33.2267 30.5154 33.2692C30.6171 33.3117 30.7254 33.3333 30.8338 33.3333C30.9421 33.3333 31.0505 33.3117 31.1521 33.2692C31.2547 33.2267 31.3463 33.1659 31.4238 33.0883L33.0896 31.4225C33.4155 31.0966 33.4155 30.57 33.0896 30.2442C32.7639 29.9184 32.2371 29.9184 31.9113 30.2442L31.6672 30.4883V11.1783L31.9112 11.4225Z" fill="#344AA3"/>
</g>
<defs>
<clipPath id="clip0">
<rect width="50" height="50" fill="white"/>
</clipPath>
</defs>
</svg>
