<svg width="50" height="50" viewBox="0 0 50 50" fill="none" xmlns="http://www.w3.org/2000/svg">
<g clip-path="url(#clip0)">
<path d="M3.50664 32.785C3.94762 33.7574 4.5605 34.6421 5.31581 35.3967L10.4525 40.5325C10.1628 40.8392 10.001 41.2448 9.99998 41.6667V48.3334C9.99998 49.2538 10.7462 50 11.6666 50H20.8333C21.7538 50 22.5 49.2538 22.5 48.3334V41.6667C22.5 40.7462 21.7538 40 20.8333 40V38.4492C20.8588 36.4758 20.2152 34.5518 19.0075 32.9909C18.2988 32.059 17.3331 31.3548 16.2291 30.965C14.4743 30.2276 12.8604 29.1917 11.4591 27.9034C10.1586 26.8286 8.30937 26.7272 6.89914 27.6534L5.10081 23.455C4.71749 22.5867 3.90006 21.9889 2.95643 21.8867C2.0128 21.7845 1.08633 22.1935 0.526011 22.9596C-0.0343042 23.7257 -0.14334 24.7326 0.239976 25.6009L3.50664 32.785ZM20.8333 48.3334H11.6666V41.6667H20.8333V48.3334ZM1.82581 23.965C2.0063 23.6797 2.3215 23.5079 2.65914 23.5109C3.05582 23.5102 3.41445 23.7468 3.56998 24.1117L5.43331 28.4592C5.92856 29.6188 6.64173 30.6726 7.53414 31.5634L11.3416 35.3709C11.5509 35.5875 11.8607 35.6744 12.1521 35.5981C12.4434 35.5219 12.671 35.2943 12.7472 35.003C12.8235 34.7116 12.7366 34.4018 12.52 34.1925L8.71248 30.385C8.32996 30.0032 7.98607 29.5845 7.68581 29.135C8.48625 28.5188 9.60635 28.5374 10.3858 29.18C11.9432 30.6098 13.7434 31.7499 15.7016 32.5467C16.4986 32.837 17.1936 33.3534 17.7016 34.0325C18.6746 35.2972 19.1909 36.8538 19.1666 38.4492V40H12.2758L6.49414 34.2184C5.88026 33.605 5.38201 32.886 5.02331 32.0959L1.75664 24.9117C1.61482 24.6054 1.64097 24.2475 1.82581 23.965Z" fill="#344AA3"/>
<path d="M18.3337 44.1666H17.5003C17.0401 44.1666 16.667 44.5397 16.667 45C16.667 45.4602 17.0401 45.8333 17.5003 45.8333H18.3337C18.7939 45.8333 19.167 45.4602 19.167 45C19.167 44.5397 18.7939 44.1666 18.3337 44.1666Z" fill="#344AA3"/>
<path d="M33.7708 30.965C32.6669 31.3548 31.7011 32.059 30.9925 32.9909C29.7848 34.5518 29.1412 36.4758 29.1667 38.4492V40C28.2462 40 27.5 40.7462 27.5 41.6667V48.3334C27.5 49.2538 28.2462 50 29.1667 50H38.3333C39.2538 50 40 49.2538 40 48.3334V41.6667C39.999 41.2448 39.8372 40.8392 39.5475 40.5325L44.6842 35.3967C45.4393 34.6423 46.0521 33.7578 46.4933 32.7859L49.76 25.6009C50.1433 24.7326 50.0343 23.7257 49.474 22.9596C48.9136 22.1935 47.9872 21.7845 47.0435 21.8867C46.0999 21.9889 45.2825 22.5867 44.8992 23.455L43.1008 27.6509C41.691 26.7243 39.8417 26.8257 38.5417 27.9009C37.1401 29.1899 35.526 30.2266 33.7708 30.965ZM38.3333 48.3334H29.1667V41.6667H38.3333V48.3334ZM42.3133 29.135C42.0134 29.5845 41.6698 30.0032 41.2875 30.385L37.48 34.1925C37.1642 34.5195 37.1687 35.0393 37.4901 35.3607C37.8116 35.6822 38.3313 35.6867 38.6583 35.3709L42.4658 31.5634C43.3582 30.6726 44.0714 29.6188 44.5667 28.4592L46.4308 24.1109C46.5868 23.7464 46.9453 23.5103 47.3417 23.5109C47.6782 23.5111 47.9917 23.6822 48.1739 23.9652C48.3562 24.2482 48.3823 24.6043 48.2433 24.9109L44.9767 32.0959C44.618 32.886 44.1197 33.605 43.5058 34.2184L37.7242 40H30.8333V38.4492C30.8081 36.8542 31.3232 35.2976 32.295 34.0325C32.8031 33.3534 33.4981 32.837 34.295 32.5467C36.2534 31.7498 38.0539 30.6097 39.6117 29.18C40.3914 28.5366 41.5126 28.5179 42.3133 29.135Z" fill="#344AA3"/>
<path d="M32.5002 44.1666H31.6668C31.2066 44.1666 30.8335 44.5397 30.8335 45C30.8335 45.4602 31.2066 45.8333 31.6668 45.8333H32.5002C32.9604 45.8333 33.3335 45.4602 33.3335 45C33.3335 44.5397 32.9604 44.1666 32.5002 44.1666Z" fill="#344AA3"/>
<path d="M11.2939 15.75C11.577 15.8898 11.9148 15.8575 12.1664 15.6667L13.333 14.7917V26.6667C13.333 27.5871 14.0792 28.3333 14.9997 28.3333H34.9997C35.9202 28.3333 36.6664 27.5871 36.6664 26.6667V14.7917L37.833 15.6667C38.0855 15.8561 38.4234 15.8865 38.7057 15.7454C38.988 15.6042 39.1664 15.3156 39.1664 15V10.8333C39.1664 10.571 39.0429 10.324 38.833 10.1667L25.4997 0.166667C25.2034 -0.0555556 24.796 -0.0555556 24.4997 0.166667L18.333 4.79167V3.33333C18.333 2.41286 17.5868 1.66667 16.6664 1.66667H14.9997C14.0792 1.66667 13.333 2.41286 13.333 3.33333V8.54167L11.1664 10.1667C10.9565 10.324 10.833 10.571 10.833 10.8333V15C10.8313 15.3174 11.01 15.6081 11.2939 15.75ZM21.6664 26.6667V20C21.6664 18.1591 23.1587 16.6667 24.9997 16.6667C26.8406 16.6667 28.333 18.1591 28.333 20V26.6667H21.6664ZM34.9997 26.6667H29.9997V20C29.9997 17.2386 27.7611 15 24.9997 15C22.2383 15 19.9997 17.2386 19.9997 20V26.6667H14.9997V13.5417L24.9997 6.04167L34.9997 13.5417V26.6667ZM14.9997 3.33333H16.6664V6.04167L14.9997 7.29167V3.33333ZM12.4997 11.25L24.9997 1.875L37.4997 11.25V13.3333L25.4997 4.33333C25.2034 4.11111 24.796 4.11111 24.4997 4.33333L12.4997 13.3333V11.25Z" fill="#344AA3"/>
</g>
<defs>
<clipPath id="clip0">
<rect width="50" height="50" fill="white"/>
</clipPath>
</defs>
</svg>
