<svg width="50" height="48" viewBox="0 0 50 48" fill="none" xmlns="http://www.w3.org/2000/svg">
<path d="M33.3881 36.0042H33.3883C35.1699 36.0042 36.6167 34.5582 36.6167 32.78V15.1617C36.6167 13.3835 35.1699 11.9368 33.3918 11.9367L33.3881 36.0042ZM33.3881 36.0042L19.1631 36.0625C18.9158 36.0634 18.6791 36.1685 18.513 36.3514L11.7167 43.8282V36.9459C11.7167 36.4583 11.3218 36.0625 10.8333 36.0625H4.94167C3.16344 36.0625 1.71667 34.6157 1.71667 32.8384V15.2209C1.71667 13.4427 3.16343 11.9959 4.94333 11.9959H4.94344L12.5 11.98H12.5H12.5H12.5H12.5H12.5H12.5001H12.5001H12.5001H12.5001H12.5001H12.5002H12.5002H12.5002H12.5002H12.5002H12.5002H12.5002H12.5002H12.5002H12.5002H12.5002H12.5002H12.5003H12.5003H12.5003H12.5003H12.5003H12.5003H12.5003H12.5003H12.5003H12.5003H12.5003H12.5003H12.5004H12.5004H12.5004H12.5004H12.5004H12.5004H12.5004H12.5004H12.5004H12.5004H12.5005H12.5005H12.5005H12.5005H12.5005H12.5005H12.5005H12.5005H12.5005H12.5005H12.5005H12.5006H12.5006H12.5006H12.5006H12.5006H12.5006H12.5006H12.5006H12.5006H12.5006H12.5006H12.5006H12.5007H12.5007H12.5007H12.5007H12.5007H12.5007H12.5007H12.5007H12.5007H12.5007H12.5007H12.5007H12.5007H12.5008H12.5008H12.5008H12.5008H12.5008H12.5008H12.5008H12.5008H12.5008H12.5008H12.5008H12.5008H12.5009H12.5009H12.5009H12.5009H12.5009H12.5009H12.5009H12.5009H12.5009H12.5009H12.5009H12.5009H12.501H12.501H12.501H12.501H12.501H12.501H12.501H12.501H12.501H12.501H12.501H12.501H12.5011H12.5011H12.5011H12.5011H12.5011H12.5011H12.5011H12.5011H12.5011H12.5011H12.5011H12.5011H12.5012H12.5012H12.5012H12.5012H12.5012H12.5012H12.5012H12.5012H12.5012H12.5012H12.5012H12.5013H12.5013H12.5013H12.5013H12.5013H12.5013H12.5013H12.5013H12.5013H12.5013H12.5014H12.5014H12.5014H12.5014H12.5014H12.5014H12.5014H12.5014H12.5014H12.5014H12.5014H12.5014H12.5014H12.5015H12.5015H12.5015H12.5015H12.5015H12.5015H12.5015H12.5015H12.5015H12.5015H12.5015H12.5015H12.5016H12.5016H12.5016H12.5016H12.5016H12.5016H12.5016H12.5016H12.5016H12.5016H12.5017H12.5017H12.5018L33.3917 11.9367L33.3881 36.0042ZM33.3899 10.1709H33.39C36.1443 10.1709 38.3833 12.4099 38.3833 15.1625V30.1882L42.45 34.6615V27.7792C42.45 27.2916 42.8449 26.8959 43.3333 26.8959H45.0583C46.8366 26.8959 48.2833 25.4499 48.2833 23.6717L48.2842 6.05337C48.2842 4.27515 46.8374 2.82837 45.0592 2.82837H45.0591H45.0591H45.0591H45.059H45.059H45.059H45.0589H45.0589H45.0589H45.0588H45.0588H45.0588H45.0588H45.0587H45.0587H45.0587H45.0586H45.0586H45.0586H45.0585H45.0585H45.0585H45.0584H45.0584H45.0584H45.0584H45.0583H45.0583H45.0583H45.0582H45.0582H45.0582H45.0581H45.0581H45.0581H45.0581H45.058H45.058H45.058H45.0579H45.0579H45.0579H45.0578H45.0578H45.0578H45.0577H45.0577H45.0577H45.0577H45.0576H45.0576H45.0576H45.0575H45.0575H45.0574L16.6067 2.77003L33.3899 10.1709ZM33.3899 10.1709L13.3833 10.2116M33.3899 10.1709L13.3833 10.2116M13.3833 10.2116V5.99503C13.3833 4.21683 14.8301 2.77009 16.6066 2.77003L13.3833 10.2116ZM44.2167 36.9475V28.6642L33.3919 37.7717C36.1327 37.7716 38.3643 35.5516 38.3832 32.8159L42.6797 37.542L42.6797 37.542C42.8502 37.7293 43.0896 37.8309 43.3333 37.8309C43.4402 37.8309 43.548 37.8114 43.6513 37.7717L43.6513 37.7717C43.9923 37.6401 44.2167 37.3123 44.2167 36.9475ZM19.5589 37.8283L33.3917 37.7717L4.94156 10.23C2.189 10.2301 -0.05 12.4691 -0.05 15.2217V32.8392C-0.05 35.5918 2.18906 37.83 4.94167 37.83H9.95V46.1134C9.95 46.4782 10.1744 46.8059 10.5153 46.9375L10.5154 46.9375C10.6187 46.9773 10.7264 46.9967 10.8333 46.9967C11.0771 46.9967 11.3165 46.8951 11.487 46.7079L11.487 46.7078L19.5589 37.8283ZM11.6167 10.216L4.94167 10.23L45.0601 1.06253L45.06 1.06253L16.6084 1.0042H16.6083C13.8557 1.0042 11.6167 3.24325 11.6167 5.99587V10.216ZM8.33333 20.2709H19.1667C19.6551 20.2709 20.05 19.8751 20.05 19.3875C20.05 18.9 19.6551 18.5042 19.1667 18.5042H8.33333C7.84485 18.5042 7.45 18.9 7.45 19.3875C7.45 19.8751 7.84485 20.2709 8.33333 20.2709ZM30 23.5042H8.33333C7.84485 23.5042 7.45 23.9 7.45 24.3875C7.45 24.8751 7.84485 25.2709 8.33333 25.2709H30C30.4885 25.2709 30.8833 24.8751 30.8833 24.3875C30.8833 23.9 30.4885 23.5042 30 23.5042ZM30 28.5042H8.33333C7.84485 28.5042 7.45 28.9 7.45 29.3875C7.45 29.8751 7.84485 30.2709 8.33333 30.2709H30C30.4885 30.2709 30.8833 29.8751 30.8833 29.3875C30.8833 28.9 30.4885 28.5042 30 28.5042Z" fill="#344AA3" stroke="#344AA3" stroke-width="0.1"/>
</svg>
