<svg width="50" height="32" viewBox="0 0 50 32" fill="none" xmlns="http://www.w3.org/2000/svg">
<mask id="path-1-inside-1" fill="white">
<path d="M39.479 21.8017C38.4977 19.7559 34.9873 16.9162 31.5957 14.1725C29.704 12.6433 27.9165 11.1975 26.7769 10.0579C26.4915 9.77042 26.0644 9.67872 25.6874 9.81417C24.9853 10.0684 24.5519 10.2642 24.2103 10.4162C23.6895 10.6495 23.5145 10.7287 22.8124 10.7995C22.5019 10.8308 22.2228 10.9975 22.0499 11.2558C20.5769 13.4578 19.0519 13.2703 18.0332 12.9287C17.7082 12.8204 17.6499 12.6808 17.6186 12.5475C17.3999 11.6329 18.4978 9.50372 19.9207 8.08077C23.3061 4.69327 25.0519 3.84532 28.7394 5.49327C32.9227 7.36407 37.1144 8.82872 37.1561 8.84327C37.7041 9.03282 38.2936 8.74532 38.4832 8.20157C38.6707 7.65782 38.3852 7.06407 37.8415 6.87452C37.7998 6.85997 33.6915 5.42452 29.5915 3.58907C24.8144 1.45362 22.1935 2.85987 18.4498 6.60577C17.0248 8.03077 15.0893 10.9141 15.5893 13.0287C15.8039 13.9287 16.4373 14.5954 17.3789 14.9058C19.7393 15.685 21.8934 14.9391 23.4976 12.81C24.1601 12.7079 24.5206 12.5579 25.0622 12.3142C25.258 12.2267 25.4872 12.1246 25.7914 12.0017C26.9831 13.1204 28.5914 14.4225 30.2851 15.7912C33.3476 18.2683 36.8206 21.0767 37.6018 22.7017C37.9873 23.5037 37.5726 24.0267 37.2914 24.2662C36.8789 24.6204 36.3143 24.7329 36.0081 24.5183C35.6706 24.287 35.231 24.2725 34.8831 24.4808C34.5331 24.6891 34.3373 25.0828 34.381 25.487C34.4518 26.1495 33.8456 26.5287 33.5831 26.66C32.9164 26.9975 32.2206 26.9392 31.9601 26.6975C31.6684 26.4267 31.2497 26.3475 30.8789 26.485C30.5081 26.6245 30.2497 26.9662 30.2122 27.362C30.1497 28.0453 29.6434 28.7016 28.983 28.9578C28.6642 29.0786 28.2017 29.1516 27.7872 28.7724C27.5289 28.5391 27.1705 28.4494 26.8351 28.5307C26.4956 28.614 26.2226 28.8599 26.1039 29.1869C26.0643 29.2911 25.9747 29.5411 24.9997 29.5411C24.3059 29.5411 23.058 29.0724 22.4476 28.6682C21.7164 28.1869 17.1309 24.7661 13.1706 21.4494C12.6143 20.9807 11.6518 19.9765 10.8018 19.089C10.0476 18.3015 9.35807 17.5869 9.00388 17.2869C8.56013 16.9119 7.90388 16.9682 7.53513 17.4099C7.16433 17.8494 7.21843 18.5078 7.65807 18.8786C7.98102 19.1516 8.60602 19.8119 9.29558 20.5307C10.2248 21.5015 11.1851 22.5057 11.831 23.0474C15.7102 26.2953 20.3727 29.8016 21.3018 30.4119C22.0685 30.9161 23.7206 31.6244 24.9998 31.6244C26.0268 31.6244 26.8165 31.389 27.3643 30.9286C28.0976 31.2141 28.931 31.2161 29.7331 30.9036C30.681 30.5369 31.4601 29.7974 31.9018 28.9016C32.7226 29.0766 33.6623 28.9536 34.5164 28.5245C35.3518 28.1037 35.9559 27.46 36.2559 26.7078C37.0851 26.7516 37.9392 26.4578 38.6455 25.8516C39.8415 24.8287 40.1706 23.2371 39.479 21.8017Z"/>
<path d="M20.8332 4.54138H11.4582C10.8832 4.54138 10.4165 5.00808 10.4165 5.58308C10.4165 6.15808 10.8832 6.62478 11.4582 6.62478H20.8332C21.4082 6.62478 21.8749 6.15808 21.8749 5.58308C21.8749 5.00808 21.4082 4.54138 20.8332 4.54138Z"/>
<path d="M42.5317 19.5851C42.2087 19.108 41.5629 18.9768 41.0859 19.3018L38.0401 21.3476C37.563 21.6684 37.4359 22.3163 37.7568 22.7934C37.9588 23.0913 38.288 23.2538 38.6235 23.2538C38.8214 23.2538 39.0235 23.1976 39.2027 23.0768L42.2485 21.031C42.7254 20.7101 42.8525 20.0622 42.5317 19.5851Z"/>
<path d="M36.0645 24.556C35.3187 23.9685 31.9832 20.5539 29.9208 18.4039C29.5228 17.9872 28.8625 17.9727 28.4478 18.3727C28.0311 18.7706 28.0186 19.431 28.4166 19.8456C28.952 20.4039 33.6748 25.3269 34.7728 26.1936C34.9623 26.3436 35.1915 26.4165 35.4165 26.4165C35.7228 26.4165 36.029 26.279 36.2374 26.0186C36.5937 25.5685 36.5166 24.9122 36.0645 24.556Z"/>
<path d="M31.902 26.6456C30.6541 25.6476 27.5187 22.3164 26.8103 21.5456C26.4186 21.1206 25.7624 21.0956 25.3374 21.4831C24.9144 21.8726 24.8853 22.5331 25.2749 22.956C25.3124 22.9956 29.0541 27.0352 30.5999 28.2727C30.7916 28.4248 31.0228 28.4998 31.2499 28.4998C31.5541 28.4998 31.8582 28.3643 32.0644 28.1102C32.4229 27.6601 32.35 27.0039 31.902 26.6456Z"/>
<path d="M27.7565 28.7436C26.271 27.4915 23.2314 24.2561 22.6377 23.6206C22.2439 23.1998 21.5835 23.1769 21.1647 23.5706C20.7439 23.9644 20.723 24.6227 21.1147 25.0436C21.9689 25.9581 24.8772 29.0415 26.4127 30.3373C26.6085 30.5019 26.846 30.5831 27.0835 30.5831C27.3793 30.5831 27.6752 30.4561 27.8815 30.2123C28.2523 29.7706 28.196 29.1144 27.7565 28.7436Z"/>
<path d="M12.175 2.74336C10.3896 1.05166 3.25 0.503711 1.1042 0.37666C0.808398 0.362109 0.535449 0.459962 0.327148 0.657911C0.11875 0.853712 0 1.12871 0 1.41621V20.1662C0 20.7412 0.466699 21.2079 1.0417 21.2079H7.2917C7.7417 21.2079 8.1417 20.9184 8.28125 20.4892C8.4333 20.0225 12.0229 9.00586 12.4958 3.58916C12.5229 3.27246 12.4062 2.95996 12.175 2.74336ZM6.53125 19.1246H2.0833V2.53291C5.43125 2.79746 9.04375 3.37246 10.3562 4.00996C9.8042 8.57247 7.30625 16.6787 6.53125 19.1246Z"/>
<path d="M48.9586 2.45801C40.7795 2.45801 36.242 4.55176 36.0524 4.63926C35.7816 4.76631 35.5795 5.00176 35.4962 5.2872C35.4129 5.57265 35.4545 5.8789 35.6107 6.13301C36.8982 8.20595 40.9295 19.7184 41.7045 22.5267C41.8295 22.9788 42.2399 23.2913 42.7087 23.2913H48.9586C49.5336 23.2913 50.0003 22.8246 50.0003 22.2496V3.49961C50.0003 2.92256 49.5336 2.45801 48.9586 2.45801ZM47.917 21.208H43.4879C42.5004 17.9913 39.5837 9.6038 37.9566 6.13721C39.5462 5.59765 42.9608 4.67051 47.917 4.55391V21.208Z"/>
</mask>
<path d="M39.479 21.8017C38.4977 19.7559 34.9873 16.9162 31.5957 14.1725C29.704 12.6433 27.9165 11.1975 26.7769 10.0579C26.4915 9.77042 26.0644 9.67872 25.6874 9.81417C24.9853 10.0684 24.5519 10.2642 24.2103 10.4162C23.6895 10.6495 23.5145 10.7287 22.8124 10.7995C22.5019 10.8308 22.2228 10.9975 22.0499 11.2558C20.5769 13.4578 19.0519 13.2703 18.0332 12.9287C17.7082 12.8204 17.6499 12.6808 17.6186 12.5475C17.3999 11.6329 18.4978 9.50372 19.9207 8.08077C23.3061 4.69327 25.0519 3.84532 28.7394 5.49327C32.9227 7.36407 37.1144 8.82872 37.1561 8.84327C37.7041 9.03282 38.2936 8.74532 38.4832 8.20157C38.6707 7.65782 38.3852 7.06407 37.8415 6.87452C37.7998 6.85997 33.6915 5.42452 29.5915 3.58907C24.8144 1.45362 22.1935 2.85987 18.4498 6.60577C17.0248 8.03077 15.0893 10.9141 15.5893 13.0287C15.8039 13.9287 16.4373 14.5954 17.3789 14.9058C19.7393 15.685 21.8934 14.9391 23.4976 12.81C24.1601 12.7079 24.5206 12.5579 25.0622 12.3142C25.258 12.2267 25.4872 12.1246 25.7914 12.0017C26.9831 13.1204 28.5914 14.4225 30.2851 15.7912C33.3476 18.2683 36.8206 21.0767 37.6018 22.7017C37.9873 23.5037 37.5726 24.0267 37.2914 24.2662C36.8789 24.6204 36.3143 24.7329 36.0081 24.5183C35.6706 24.287 35.231 24.2725 34.8831 24.4808C34.5331 24.6891 34.3373 25.0828 34.381 25.487C34.4518 26.1495 33.8456 26.5287 33.5831 26.66C32.9164 26.9975 32.2206 26.9392 31.9601 26.6975C31.6684 26.4267 31.2497 26.3475 30.8789 26.485C30.5081 26.6245 30.2497 26.9662 30.2122 27.362C30.1497 28.0453 29.6434 28.7016 28.983 28.9578C28.6642 29.0786 28.2017 29.1516 27.7872 28.7724C27.5289 28.5391 27.1705 28.4494 26.8351 28.5307C26.4956 28.614 26.2226 28.8599 26.1039 29.1869C26.0643 29.2911 25.9747 29.5411 24.9997 29.5411C24.3059 29.5411 23.058 29.0724 22.4476 28.6682C21.7164 28.1869 17.1309 24.7661 13.1706 21.4494C12.6143 20.9807 11.6518 19.9765 10.8018 19.089C10.0476 18.3015 9.35807 17.5869 9.00388 17.2869C8.56013 16.9119 7.90388 16.9682 7.53513 17.4099C7.16433 17.8494 7.21843 18.5078 7.65807 18.8786C7.98102 19.1516 8.60602 19.8119 9.29558 20.5307C10.2248 21.5015 11.1851 22.5057 11.831 23.0474C15.7102 26.2953 20.3727 29.8016 21.3018 30.4119C22.0685 30.9161 23.7206 31.6244 24.9998 31.6244C26.0268 31.6244 26.8165 31.389 27.3643 30.9286C28.0976 31.2141 28.931 31.2161 29.7331 30.9036C30.681 30.5369 31.4601 29.7974 31.9018 28.9016C32.7226 29.0766 33.6623 28.9536 34.5164 28.5245C35.3518 28.1037 35.9559 27.46 36.2559 26.7078C37.0851 26.7516 37.9392 26.4578 38.6455 25.8516C39.8415 24.8287 40.1706 23.2371 39.479 21.8017Z" fill="#344AA3"/>
<path d="M20.8332 4.54138H11.4582C10.8832 4.54138 10.4165 5.00808 10.4165 5.58308C10.4165 6.15808 10.8832 6.62478 11.4582 6.62478H20.8332C21.4082 6.62478 21.8749 6.15808 21.8749 5.58308C21.8749 5.00808 21.4082 4.54138 20.8332 4.54138Z" fill="#344AA3"/>
<path d="M42.5317 19.5851C42.2087 19.108 41.5629 18.9768 41.0859 19.3018L38.0401 21.3476C37.563 21.6684 37.4359 22.3163 37.7568 22.7934C37.9588 23.0913 38.288 23.2538 38.6235 23.2538C38.8214 23.2538 39.0235 23.1976 39.2027 23.0768L42.2485 21.031C42.7254 20.7101 42.8525 20.0622 42.5317 19.5851Z" fill="#344AA3"/>
<path d="M36.0645 24.556C35.3187 23.9685 31.9832 20.5539 29.9208 18.4039C29.5228 17.9872 28.8625 17.9727 28.4478 18.3727C28.0311 18.7706 28.0186 19.431 28.4166 19.8456C28.952 20.4039 33.6748 25.3269 34.7728 26.1936C34.9623 26.3436 35.1915 26.4165 35.4165 26.4165C35.7228 26.4165 36.029 26.279 36.2374 26.0186C36.5937 25.5685 36.5166 24.9122 36.0645 24.556Z" fill="#344AA3"/>
<path d="M31.902 26.6456C30.6541 25.6476 27.5187 22.3164 26.8103 21.5456C26.4186 21.1206 25.7624 21.0956 25.3374 21.4831C24.9144 21.8726 24.8853 22.5331 25.2749 22.956C25.3124 22.9956 29.0541 27.0352 30.5999 28.2727C30.7916 28.4248 31.0228 28.4998 31.2499 28.4998C31.5541 28.4998 31.8582 28.3643 32.0644 28.1102C32.4229 27.6601 32.35 27.0039 31.902 26.6456Z" fill="#344AA3"/>
<path d="M27.7565 28.7436C26.271 27.4915 23.2314 24.2561 22.6377 23.6206C22.2439 23.1998 21.5835 23.1769 21.1647 23.5706C20.7439 23.9644 20.723 24.6227 21.1147 25.0436C21.9689 25.9581 24.8772 29.0415 26.4127 30.3373C26.6085 30.5019 26.846 30.5831 27.0835 30.5831C27.3793 30.5831 27.6752 30.4561 27.8815 30.2123C28.2523 29.7706 28.196 29.1144 27.7565 28.7436Z" fill="#344AA3"/>
<path d="M12.175 2.74336C10.3896 1.05166 3.25 0.503711 1.1042 0.37666C0.808398 0.362109 0.535449 0.459962 0.327148 0.657911C0.11875 0.853712 0 1.12871 0 1.41621V20.1662C0 20.7412 0.466699 21.2079 1.0417 21.2079H7.2917C7.7417 21.2079 8.1417 20.9184 8.28125 20.4892C8.4333 20.0225 12.0229 9.00586 12.4958 3.58916C12.5229 3.27246 12.4062 2.95996 12.175 2.74336ZM6.53125 19.1246H2.0833V2.53291C5.43125 2.79746 9.04375 3.37246 10.3562 4.00996C9.8042 8.57247 7.30625 16.6787 6.53125 19.1246Z" fill="#344AA3"/>
<path d="M48.9586 2.45801C40.7795 2.45801 36.242 4.55176 36.0524 4.63926C35.7816 4.76631 35.5795 5.00176 35.4962 5.2872C35.4129 5.57265 35.4545 5.8789 35.6107 6.13301C36.8982 8.20595 40.9295 19.7184 41.7045 22.5267C41.8295 22.9788 42.2399 23.2913 42.7087 23.2913H48.9586C49.5336 23.2913 50.0003 22.8246 50.0003 22.2496V3.49961C50.0003 2.92256 49.5336 2.45801 48.9586 2.45801ZM47.917 21.208H43.4879C42.5004 17.9913 39.5837 9.6038 37.9566 6.13721C39.5462 5.59765 42.9608 4.67051 47.917 4.55391V21.208Z" fill="#344AA3"/>
<path d="M39.479 21.8017C38.4977 19.7559 34.9873 16.9162 31.5957 14.1725C29.704 12.6433 27.9165 11.1975 26.7769 10.0579C26.4915 9.77042 26.0644 9.67872 25.6874 9.81417C24.9853 10.0684 24.5519 10.2642 24.2103 10.4162C23.6895 10.6495 23.5145 10.7287 22.8124 10.7995C22.5019 10.8308 22.2228 10.9975 22.0499 11.2558C20.5769 13.4578 19.0519 13.2703 18.0332 12.9287C17.7082 12.8204 17.6499 12.6808 17.6186 12.5475C17.3999 11.6329 18.4978 9.50372 19.9207 8.08077C23.3061 4.69327 25.0519 3.84532 28.7394 5.49327C32.9227 7.36407 37.1144 8.82872 37.1561 8.84327C37.7041 9.03282 38.2936 8.74532 38.4832 8.20157C38.6707 7.65782 38.3852 7.06407 37.8415 6.87452C37.7998 6.85997 33.6915 5.42452 29.5915 3.58907C24.8144 1.45362 22.1935 2.85987 18.4498 6.60577C17.0248 8.03077 15.0893 10.9141 15.5893 13.0287C15.8039 13.9287 16.4373 14.5954 17.3789 14.9058C19.7393 15.685 21.8934 14.9391 23.4976 12.81C24.1601 12.7079 24.5206 12.5579 25.0622 12.3142C25.258 12.2267 25.4872 12.1246 25.7914 12.0017C26.9831 13.1204 28.5914 14.4225 30.2851 15.7912C33.3476 18.2683 36.8206 21.0767 37.6018 22.7017C37.9873 23.5037 37.5726 24.0267 37.2914 24.2662C36.8789 24.6204 36.3143 24.7329 36.0081 24.5183C35.6706 24.287 35.231 24.2725 34.8831 24.4808C34.5331 24.6891 34.3373 25.0828 34.381 25.487C34.4518 26.1495 33.8456 26.5287 33.5831 26.66C32.9164 26.9975 32.2206 26.9392 31.9601 26.6975C31.6684 26.4267 31.2497 26.3475 30.8789 26.485C30.5081 26.6245 30.2497 26.9662 30.2122 27.362C30.1497 28.0453 29.6434 28.7016 28.983 28.9578C28.6642 29.0786 28.2017 29.1516 27.7872 28.7724C27.5289 28.5391 27.1705 28.4494 26.8351 28.5307C26.4956 28.614 26.2226 28.8599 26.1039 29.1869C26.0643 29.2911 25.9747 29.5411 24.9997 29.5411C24.3059 29.5411 23.058 29.0724 22.4476 28.6682C21.7164 28.1869 17.1309 24.7661 13.1706 21.4494C12.6143 20.9807 11.6518 19.9765 10.8018 19.089C10.0476 18.3015 9.35807 17.5869 9.00388 17.2869C8.56013 16.9119 7.90388 16.9682 7.53513 17.4099C7.16433 17.8494 7.21843 18.5078 7.65807 18.8786C7.98102 19.1516 8.60602 19.8119 9.29558 20.5307C10.2248 21.5015 11.1851 22.5057 11.831 23.0474C15.7102 26.2953 20.3727 29.8016 21.3018 30.4119C22.0685 30.9161 23.7206 31.6244 24.9998 31.6244C26.0268 31.6244 26.8165 31.389 27.3643 30.9286C28.0976 31.2141 28.931 31.2161 29.7331 30.9036C30.681 30.5369 31.4601 29.7974 31.9018 28.9016C32.7226 29.0766 33.6623 28.9536 34.5164 28.5245C35.3518 28.1037 35.9559 27.46 36.2559 26.7078C37.0851 26.7516 37.9392 26.4578 38.6455 25.8516C39.8415 24.8287 40.1706 23.2371 39.479 21.8017Z" stroke="white" stroke-width="0.4" mask="url(#path-1-inside-1)"/>
<path d="M20.8332 4.54138H11.4582C10.8832 4.54138 10.4165 5.00808 10.4165 5.58308C10.4165 6.15808 10.8832 6.62478 11.4582 6.62478H20.8332C21.4082 6.62478 21.8749 6.15808 21.8749 5.58308C21.8749 5.00808 21.4082 4.54138 20.8332 4.54138Z" stroke="white" stroke-width="0.4" mask="url(#path-1-inside-1)"/>
<path d="M42.5317 19.5851C42.2087 19.108 41.5629 18.9768 41.0859 19.3018L38.0401 21.3476C37.563 21.6684 37.4359 22.3163 37.7568 22.7934C37.9588 23.0913 38.288 23.2538 38.6235 23.2538C38.8214 23.2538 39.0235 23.1976 39.2027 23.0768L42.2485 21.031C42.7254 20.7101 42.8525 20.0622 42.5317 19.5851Z" stroke="white" stroke-width="0.4" mask="url(#path-1-inside-1)"/>
<path d="M36.0645 24.556C35.3187 23.9685 31.9832 20.5539 29.9208 18.4039C29.5228 17.9872 28.8625 17.9727 28.4478 18.3727C28.0311 18.7706 28.0186 19.431 28.4166 19.8456C28.952 20.4039 33.6748 25.3269 34.7728 26.1936C34.9623 26.3436 35.1915 26.4165 35.4165 26.4165C35.7228 26.4165 36.029 26.279 36.2374 26.0186C36.5937 25.5685 36.5166 24.9122 36.0645 24.556Z" stroke="white" stroke-width="0.4" mask="url(#path-1-inside-1)"/>
<path d="M31.902 26.6456C30.6541 25.6476 27.5187 22.3164 26.8103 21.5456C26.4186 21.1206 25.7624 21.0956 25.3374 21.4831C24.9144 21.8726 24.8853 22.5331 25.2749 22.956C25.3124 22.9956 29.0541 27.0352 30.5999 28.2727C30.7916 28.4248 31.0228 28.4998 31.2499 28.4998C31.5541 28.4998 31.8582 28.3643 32.0644 28.1102C32.4229 27.6601 32.35 27.0039 31.902 26.6456Z" stroke="white" stroke-width="0.4" mask="url(#path-1-inside-1)"/>
<path d="M27.7565 28.7436C26.271 27.4915 23.2314 24.2561 22.6377 23.6206C22.2439 23.1998 21.5835 23.1769 21.1647 23.5706C20.7439 23.9644 20.723 24.6227 21.1147 25.0436C21.9689 25.9581 24.8772 29.0415 26.4127 30.3373C26.6085 30.5019 26.846 30.5831 27.0835 30.5831C27.3793 30.5831 27.6752 30.4561 27.8815 30.2123C28.2523 29.7706 28.196 29.1144 27.7565 28.7436Z" stroke="white" stroke-width="0.4" mask="url(#path-1-inside-1)"/>
<path d="M12.175 2.74336C10.3896 1.05166 3.25 0.503711 1.1042 0.37666C0.808398 0.362109 0.535449 0.459962 0.327148 0.657911C0.11875 0.853712 0 1.12871 0 1.41621V20.1662C0 20.7412 0.466699 21.2079 1.0417 21.2079H7.2917C7.7417 21.2079 8.1417 20.9184 8.28125 20.4892C8.4333 20.0225 12.0229 9.00586 12.4958 3.58916C12.5229 3.27246 12.4062 2.95996 12.175 2.74336ZM6.53125 19.1246H2.0833V2.53291C5.43125 2.79746 9.04375 3.37246 10.3562 4.00996C9.8042 8.57247 7.30625 16.6787 6.53125 19.1246Z" stroke="white" stroke-width="0.4" mask="url(#path-1-inside-1)"/>
<path d="M48.9586 2.45801C40.7795 2.45801 36.242 4.55176 36.0524 4.63926C35.7816 4.76631 35.5795 5.00176 35.4962 5.2872C35.4129 5.57265 35.4545 5.8789 35.6107 6.13301C36.8982 8.20595 40.9295 19.7184 41.7045 22.5267C41.8295 22.9788 42.2399 23.2913 42.7087 23.2913H48.9586C49.5336 23.2913 50.0003 22.8246 50.0003 22.2496V3.49961C50.0003 2.92256 49.5336 2.45801 48.9586 2.45801ZM47.917 21.208H43.4879C42.5004 17.9913 39.5837 9.6038 37.9566 6.13721C39.5462 5.59765 42.9608 4.67051 47.917 4.55391V21.208Z" stroke="white" stroke-width="0.4" mask="url(#path-1-inside-1)"/>
</svg>
