<svg width="64" height="40" viewBox="0 0 64 40" fill="none" xmlns="http://www.w3.org/2000/svg">
<mask id="path-1-inside-1" fill="white">
<path d="M50.5334 27.4265C49.2774 24.8078 44.784 21.1731 40.4428 17.6611C38.0214 15.7037 35.7334 13.8531 34.2748 12.3945C33.9094 12.0265 33.3628 11.9091 32.8801 12.0825C31.9815 12.4078 31.4268 12.6585 30.9895 12.8531C30.3229 13.1517 30.0989 13.2531 29.2001 13.3437C28.8028 13.3837 28.4455 13.5971 28.2241 13.9277C26.3388 16.7463 24.3868 16.5063 23.0828 16.0691C22.6668 15.9305 22.5921 15.7517 22.5521 15.5811C22.2721 14.4105 23.6775 11.6851 25.4988 9.86372C29.8321 5.52772 32.0668 4.44235 36.7868 6.55172C42.1414 8.94635 47.5068 10.8211 47.5601 10.8397C48.2615 11.0823 49.0161 10.7143 49.2588 10.0183C49.4988 9.32235 49.1334 8.56235 48.4374 8.31972C48.384 8.3011 43.1254 6.46372 37.8774 4.11434C31.7628 1.38097 28.408 3.18097 23.616 7.97572C21.792 9.79972 19.3146 13.4903 19.9546 16.1971C20.2293 17.3491 21.04 18.2025 22.2453 18.5997C25.2666 19.5971 28.0239 18.6423 30.0773 15.9171C30.9253 15.7865 31.3866 15.5945 32.0799 15.2825C32.3305 15.1705 32.6239 15.0398 33.0133 14.8825C34.5386 16.3145 36.5973 17.9811 38.7653 19.7331C42.6853 22.9037 47.1306 26.4985 48.1306 28.5785C48.624 29.6051 48.0933 30.2745 47.7333 30.5811C47.2053 31.0345 46.4826 31.1785 46.0906 30.9037C45.6586 30.6077 45.096 30.5891 44.6506 30.8557C44.2026 31.1223 43.952 31.6263 44.008 32.1437C44.0986 32.9917 43.3226 33.4771 42.9866 33.6451C42.1333 34.0771 41.2426 34.0025 40.9093 33.6931C40.5359 33.3465 39.9999 33.2451 39.5253 33.4211C39.0506 33.5997 38.7199 34.0371 38.6719 34.5437C38.5919 35.4183 37.9439 36.2583 37.0985 36.5863C36.6905 36.741 36.0985 36.8343 35.5679 36.349C35.2373 36.0503 34.7785 35.9356 34.3493 36.0396C33.9146 36.1462 33.5653 36.461 33.4133 36.8796C33.3626 37.013 33.2479 37.333 31.9999 37.333C31.1119 37.333 29.5145 36.733 28.7333 36.2156C27.7973 35.5996 21.9279 31.221 16.8586 26.9756C16.1466 26.3756 14.9146 25.0902 13.8266 23.9542C12.8613 22.9462 11.9786 22.0316 11.5253 21.6476C10.9573 21.1676 10.1173 21.2396 9.64525 21.805C9.17063 22.3676 9.23988 23.2103 9.80263 23.685C10.216 24.0343 11.016 24.8796 11.8986 25.7996C13.088 27.0422 14.3173 28.3276 15.144 29.021C20.1094 33.1783 26.0774 37.6663 27.2666 38.4476C28.248 39.093 30.3626 39.9996 32 39.9996C33.3146 39.9996 34.3254 39.6982 35.0266 39.109C35.9653 39.4743 37.032 39.477 38.0586 39.077C39.272 38.6076 40.2693 37.661 40.8346 36.5143C41.8853 36.7383 43.088 36.581 44.1813 36.0317C45.2506 35.4931 46.0239 34.6691 46.4079 33.7063C47.4693 33.7623 48.5625 33.3863 49.4665 32.6103C50.9974 31.3011 51.4186 29.2638 50.5334 27.4265Z"/>
<path d="M26.6666 5.33301H14.6666C13.9306 5.33301 13.3333 5.93038 13.3333 6.66638C13.3333 7.40238 13.9306 7.99976 14.6666 7.99976H26.6666C27.4026 7.99976 28 7.40238 28 6.66638C28 5.93038 27.4026 5.33301 26.6666 5.33301Z"/>
<path d="M54.44 24.5888C54.0266 23.9782 53.2 23.8102 52.5894 24.2262L48.6908 26.8448C48.0801 27.2554 47.9174 28.0848 48.3281 28.6954C48.5868 29.0768 49.0081 29.2848 49.4375 29.2848C49.6909 29.2848 49.9495 29.2128 50.1789 29.0581L54.0775 26.4395C54.688 26.0288 54.8506 25.1995 54.44 24.5888Z"/>
<path d="M46.1626 30.9515C45.208 30.1995 40.9386 25.8289 38.2986 23.0769C37.7893 22.5435 36.944 22.5249 36.4133 23.0369C35.8799 23.5463 35.8639 24.3915 36.3733 24.9223C37.0586 25.6369 43.1039 31.9383 44.5093 33.0476C44.7519 33.2396 45.0453 33.333 45.3333 33.333C45.7253 33.333 46.1173 33.157 46.3839 32.8236C46.84 32.2475 46.7414 31.4075 46.1626 30.9515Z"/>
<path d="M40.8346 33.6261C39.2373 32.3488 35.224 28.0847 34.3173 27.0981C33.8159 26.5541 32.9759 26.5221 32.4319 27.0181C31.8905 27.5167 31.8533 28.3621 32.3519 28.9035C32.3999 28.9541 37.1893 34.1249 39.1679 35.7089C39.4133 35.9035 39.7093 35.9995 39.9999 35.9995C40.3893 35.9995 40.7785 35.8261 41.0425 35.5009C41.5014 34.9248 41.408 34.0848 40.8346 33.6261Z"/>
<path d="M35.528 36.3117C33.6266 34.7091 29.736 30.5677 28.976 29.7543C28.472 29.2157 27.6266 29.1863 27.0906 29.6903C26.552 30.1943 26.5252 31.037 27.0266 31.5757C28.12 32.7463 31.8426 36.6931 33.808 38.3517C34.0586 38.5623 34.3626 38.6663 34.6666 38.6663C35.0453 38.6663 35.424 38.5037 35.688 38.1917C36.1626 37.6263 36.0906 36.7863 35.528 36.3117Z"/>
<path d="M15.584 3.03168C13.2986 0.866302 4.16 0.164926 1.41338 0.00230086C1.03475 -0.0163241 0.685375 0.108927 0.41875 0.362302C0.152 0.612927 0 0.964927 0 1.33293V25.3329C0 26.0689 0.597375 26.6663 1.33337 26.6663H9.33337C9.90938 26.6663 10.4214 26.2957 10.6 25.7463C10.7946 25.1489 15.3894 11.0477 15.9946 4.1143C16.0294 3.70893 15.88 3.30893 15.584 3.03168ZM8.36 23.9997H2.66663V2.7623C6.952 3.10093 11.576 3.83693 13.256 4.65293C12.5494 10.4929 9.352 20.8689 8.36 23.9997Z"/>
<path d="M62.6666 2.66602C52.1973 2.66602 46.3893 5.34601 46.1466 5.45801C45.8 5.62064 45.5413 5.92201 45.4346 6.28739C45.328 6.65276 45.3813 7.04476 45.5813 7.37001C47.2293 10.0234 52.3893 24.7594 53.3813 28.354C53.5413 28.9326 54.0666 29.3326 54.6666 29.3326H62.6666C63.4026 29.3326 64 28.7353 64 27.9993V3.99927C64 3.26064 63.4026 2.66602 62.6666 2.66602ZM61.3334 26.666H55.664C54.4 22.5486 50.6666 11.8126 48.584 7.37539C50.6186 6.68476 54.9894 5.49802 61.3334 5.34877V26.666Z"/>
</mask>
<path d="M50.5334 27.4265C49.2774 24.8078 44.784 21.1731 40.4428 17.6611C38.0214 15.7037 35.7334 13.8531 34.2748 12.3945C33.9094 12.0265 33.3628 11.9091 32.8801 12.0825C31.9815 12.4078 31.4268 12.6585 30.9895 12.8531C30.3229 13.1517 30.0989 13.2531 29.2001 13.3437C28.8028 13.3837 28.4455 13.5971 28.2241 13.9277C26.3388 16.7463 24.3868 16.5063 23.0828 16.0691C22.6668 15.9305 22.5921 15.7517 22.5521 15.5811C22.2721 14.4105 23.6775 11.6851 25.4988 9.86372C29.8321 5.52772 32.0668 4.44235 36.7868 6.55172C42.1414 8.94635 47.5068 10.8211 47.5601 10.8397C48.2615 11.0823 49.0161 10.7143 49.2588 10.0183C49.4988 9.32235 49.1334 8.56235 48.4374 8.31972C48.384 8.3011 43.1254 6.46372 37.8774 4.11434C31.7628 1.38097 28.408 3.18097 23.616 7.97572C21.792 9.79972 19.3146 13.4903 19.9546 16.1971C20.2293 17.3491 21.04 18.2025 22.2453 18.5997C25.2666 19.5971 28.0239 18.6423 30.0773 15.9171C30.9253 15.7865 31.3866 15.5945 32.0799 15.2825C32.3305 15.1705 32.6239 15.0398 33.0133 14.8825C34.5386 16.3145 36.5973 17.9811 38.7653 19.7331C42.6853 22.9037 47.1306 26.4985 48.1306 28.5785C48.624 29.6051 48.0933 30.2745 47.7333 30.5811C47.2053 31.0345 46.4826 31.1785 46.0906 30.9037C45.6586 30.6077 45.096 30.5891 44.6506 30.8557C44.2026 31.1223 43.952 31.6263 44.008 32.1437C44.0986 32.9917 43.3226 33.4771 42.9866 33.6451C42.1333 34.0771 41.2426 34.0025 40.9093 33.6931C40.5359 33.3465 39.9999 33.2451 39.5253 33.4211C39.0506 33.5997 38.7199 34.0371 38.6719 34.5437C38.5919 35.4183 37.9439 36.2583 37.0985 36.5863C36.6905 36.741 36.0985 36.8343 35.5679 36.349C35.2373 36.0503 34.7785 35.9356 34.3493 36.0396C33.9146 36.1462 33.5653 36.461 33.4133 36.8796C33.3626 37.013 33.2479 37.333 31.9999 37.333C31.1119 37.333 29.5145 36.733 28.7333 36.2156C27.7973 35.5996 21.9279 31.221 16.8586 26.9756C16.1466 26.3756 14.9146 25.0902 13.8266 23.9542C12.8613 22.9462 11.9786 22.0316 11.5253 21.6476C10.9573 21.1676 10.1173 21.2396 9.64525 21.805C9.17063 22.3676 9.23988 23.2103 9.80263 23.685C10.216 24.0343 11.016 24.8796 11.8986 25.7996C13.088 27.0422 14.3173 28.3276 15.144 29.021C20.1094 33.1783 26.0774 37.6663 27.2666 38.4476C28.248 39.093 30.3626 39.9996 32 39.9996C33.3146 39.9996 34.3254 39.6982 35.0266 39.109C35.9653 39.4743 37.032 39.477 38.0586 39.077C39.272 38.6076 40.2693 37.661 40.8346 36.5143C41.8853 36.7383 43.088 36.581 44.1813 36.0317C45.2506 35.4931 46.0239 34.6691 46.4079 33.7063C47.4693 33.7623 48.5625 33.3863 49.4665 32.6103C50.9974 31.3011 51.4186 29.2638 50.5334 27.4265Z" fill="#344AA3"/>
<path d="M26.6666 5.33301H14.6666C13.9306 5.33301 13.3333 5.93038 13.3333 6.66638C13.3333 7.40238 13.9306 7.99976 14.6666 7.99976H26.6666C27.4026 7.99976 28 7.40238 28 6.66638C28 5.93038 27.4026 5.33301 26.6666 5.33301Z" fill="#344AA3"/>
<path d="M54.44 24.5888C54.0266 23.9782 53.2 23.8102 52.5894 24.2262L48.6908 26.8448C48.0801 27.2554 47.9174 28.0848 48.3281 28.6954C48.5868 29.0768 49.0081 29.2848 49.4375 29.2848C49.6909 29.2848 49.9495 29.2128 50.1789 29.0581L54.0775 26.4395C54.688 26.0288 54.8506 25.1995 54.44 24.5888Z" fill="#344AA3"/>
<path d="M46.1626 30.9515C45.208 30.1995 40.9386 25.8289 38.2986 23.0769C37.7893 22.5435 36.944 22.5249 36.4133 23.0369C35.8799 23.5463 35.8639 24.3915 36.3733 24.9223C37.0586 25.6369 43.1039 31.9383 44.5093 33.0476C44.7519 33.2396 45.0453 33.333 45.3333 33.333C45.7253 33.333 46.1173 33.157 46.3839 32.8236C46.84 32.2475 46.7414 31.4075 46.1626 30.9515Z" fill="#344AA3"/>
<path d="M40.8346 33.6261C39.2373 32.3488 35.224 28.0847 34.3173 27.0981C33.8159 26.5541 32.9759 26.5221 32.4319 27.0181C31.8905 27.5167 31.8533 28.3621 32.3519 28.9035C32.3999 28.9541 37.1893 34.1249 39.1679 35.7089C39.4133 35.9035 39.7093 35.9995 39.9999 35.9995C40.3893 35.9995 40.7785 35.8261 41.0425 35.5009C41.5014 34.9248 41.408 34.0848 40.8346 33.6261Z" fill="#344AA3"/>
<path d="M35.528 36.3117C33.6266 34.7091 29.736 30.5677 28.976 29.7543C28.472 29.2157 27.6266 29.1863 27.0906 29.6903C26.552 30.1943 26.5252 31.037 27.0266 31.5757C28.12 32.7463 31.8426 36.6931 33.808 38.3517C34.0586 38.5623 34.3626 38.6663 34.6666 38.6663C35.0453 38.6663 35.424 38.5037 35.688 38.1917C36.1626 37.6263 36.0906 36.7863 35.528 36.3117Z" fill="#344AA3"/>
<path d="M15.584 3.03168C13.2986 0.866302 4.16 0.164926 1.41338 0.00230086C1.03475 -0.0163241 0.685375 0.108927 0.41875 0.362302C0.152 0.612927 0 0.964927 0 1.33293V25.3329C0 26.0689 0.597375 26.6663 1.33337 26.6663H9.33337C9.90938 26.6663 10.4214 26.2957 10.6 25.7463C10.7946 25.1489 15.3894 11.0477 15.9946 4.1143C16.0294 3.70893 15.88 3.30893 15.584 3.03168ZM8.36 23.9997H2.66663V2.7623C6.952 3.10093 11.576 3.83693 13.256 4.65293C12.5494 10.4929 9.352 20.8689 8.36 23.9997Z" fill="#344AA3"/>
<path d="M62.6666 2.66602C52.1973 2.66602 46.3893 5.34601 46.1466 5.45801C45.8 5.62064 45.5413 5.92201 45.4346 6.28739C45.328 6.65276 45.3813 7.04476 45.5813 7.37001C47.2293 10.0234 52.3893 24.7594 53.3813 28.354C53.5413 28.9326 54.0666 29.3326 54.6666 29.3326H62.6666C63.4026 29.3326 64 28.7353 64 27.9993V3.99927C64 3.26064 63.4026 2.66602 62.6666 2.66602ZM61.3334 26.666H55.664C54.4 22.5486 50.6666 11.8126 48.584 7.37539C50.6186 6.68476 54.9894 5.49802 61.3334 5.34877V26.666Z" fill="#344AA3"/>
<path d="M50.5334 27.4265C49.2774 24.8078 44.784 21.1731 40.4428 17.6611C38.0214 15.7037 35.7334 13.8531 34.2748 12.3945C33.9094 12.0265 33.3628 11.9091 32.8801 12.0825C31.9815 12.4078 31.4268 12.6585 30.9895 12.8531C30.3229 13.1517 30.0989 13.2531 29.2001 13.3437C28.8028 13.3837 28.4455 13.5971 28.2241 13.9277C26.3388 16.7463 24.3868 16.5063 23.0828 16.0691C22.6668 15.9305 22.5921 15.7517 22.5521 15.5811C22.2721 14.4105 23.6775 11.6851 25.4988 9.86372C29.8321 5.52772 32.0668 4.44235 36.7868 6.55172C42.1414 8.94635 47.5068 10.8211 47.5601 10.8397C48.2615 11.0823 49.0161 10.7143 49.2588 10.0183C49.4988 9.32235 49.1334 8.56235 48.4374 8.31972C48.384 8.3011 43.1254 6.46372 37.8774 4.11434C31.7628 1.38097 28.408 3.18097 23.616 7.97572C21.792 9.79972 19.3146 13.4903 19.9546 16.1971C20.2293 17.3491 21.04 18.2025 22.2453 18.5997C25.2666 19.5971 28.0239 18.6423 30.0773 15.9171C30.9253 15.7865 31.3866 15.5945 32.0799 15.2825C32.3305 15.1705 32.6239 15.0398 33.0133 14.8825C34.5386 16.3145 36.5973 17.9811 38.7653 19.7331C42.6853 22.9037 47.1306 26.4985 48.1306 28.5785C48.624 29.6051 48.0933 30.2745 47.7333 30.5811C47.2053 31.0345 46.4826 31.1785 46.0906 30.9037C45.6586 30.6077 45.096 30.5891 44.6506 30.8557C44.2026 31.1223 43.952 31.6263 44.008 32.1437C44.0986 32.9917 43.3226 33.4771 42.9866 33.6451C42.1333 34.0771 41.2426 34.0025 40.9093 33.6931C40.5359 33.3465 39.9999 33.2451 39.5253 33.4211C39.0506 33.5997 38.7199 34.0371 38.6719 34.5437C38.5919 35.4183 37.9439 36.2583 37.0985 36.5863C36.6905 36.741 36.0985 36.8343 35.5679 36.349C35.2373 36.0503 34.7785 35.9356 34.3493 36.0396C33.9146 36.1462 33.5653 36.461 33.4133 36.8796C33.3626 37.013 33.2479 37.333 31.9999 37.333C31.1119 37.333 29.5145 36.733 28.7333 36.2156C27.7973 35.5996 21.9279 31.221 16.8586 26.9756C16.1466 26.3756 14.9146 25.0902 13.8266 23.9542C12.8613 22.9462 11.9786 22.0316 11.5253 21.6476C10.9573 21.1676 10.1173 21.2396 9.64525 21.805C9.17063 22.3676 9.23988 23.2103 9.80263 23.685C10.216 24.0343 11.016 24.8796 11.8986 25.7996C13.088 27.0422 14.3173 28.3276 15.144 29.021C20.1094 33.1783 26.0774 37.6663 27.2666 38.4476C28.248 39.093 30.3626 39.9996 32 39.9996C33.3146 39.9996 34.3254 39.6982 35.0266 39.109C35.9653 39.4743 37.032 39.477 38.0586 39.077C39.272 38.6076 40.2693 37.661 40.8346 36.5143C41.8853 36.7383 43.088 36.581 44.1813 36.0317C45.2506 35.4931 46.0239 34.6691 46.4079 33.7063C47.4693 33.7623 48.5625 33.3863 49.4665 32.6103C50.9974 31.3011 51.4186 29.2638 50.5334 27.4265Z" stroke="white" stroke-width="0.2" mask="url(#path-1-inside-1)"/>
<path d="M26.6666 5.33301H14.6666C13.9306 5.33301 13.3333 5.93038 13.3333 6.66638C13.3333 7.40238 13.9306 7.99976 14.6666 7.99976H26.6666C27.4026 7.99976 28 7.40238 28 6.66638C28 5.93038 27.4026 5.33301 26.6666 5.33301Z" stroke="white" stroke-width="0.2" mask="url(#path-1-inside-1)"/>
<path d="M54.44 24.5888C54.0266 23.9782 53.2 23.8102 52.5894 24.2262L48.6908 26.8448C48.0801 27.2554 47.9174 28.0848 48.3281 28.6954C48.5868 29.0768 49.0081 29.2848 49.4375 29.2848C49.6909 29.2848 49.9495 29.2128 50.1789 29.0581L54.0775 26.4395C54.688 26.0288 54.8506 25.1995 54.44 24.5888Z" stroke="white" stroke-width="0.2" mask="url(#path-1-inside-1)"/>
<path d="M46.1626 30.9515C45.208 30.1995 40.9386 25.8289 38.2986 23.0769C37.7893 22.5435 36.944 22.5249 36.4133 23.0369C35.8799 23.5463 35.8639 24.3915 36.3733 24.9223C37.0586 25.6369 43.1039 31.9383 44.5093 33.0476C44.7519 33.2396 45.0453 33.333 45.3333 33.333C45.7253 33.333 46.1173 33.157 46.3839 32.8236C46.84 32.2475 46.7414 31.4075 46.1626 30.9515Z" stroke="white" stroke-width="0.2" mask="url(#path-1-inside-1)"/>
<path d="M40.8346 33.6261C39.2373 32.3488 35.224 28.0847 34.3173 27.0981C33.8159 26.5541 32.9759 26.5221 32.4319 27.0181C31.8905 27.5167 31.8533 28.3621 32.3519 28.9035C32.3999 28.9541 37.1893 34.1249 39.1679 35.7089C39.4133 35.9035 39.7093 35.9995 39.9999 35.9995C40.3893 35.9995 40.7785 35.8261 41.0425 35.5009C41.5014 34.9248 41.408 34.0848 40.8346 33.6261Z" stroke="white" stroke-width="0.2" mask="url(#path-1-inside-1)"/>
<path d="M35.528 36.3117C33.6266 34.7091 29.736 30.5677 28.976 29.7543C28.472 29.2157 27.6266 29.1863 27.0906 29.6903C26.552 30.1943 26.5252 31.037 27.0266 31.5757C28.12 32.7463 31.8426 36.6931 33.808 38.3517C34.0586 38.5623 34.3626 38.6663 34.6666 38.6663C35.0453 38.6663 35.424 38.5037 35.688 38.1917C36.1626 37.6263 36.0906 36.7863 35.528 36.3117Z" stroke="white" stroke-width="0.2" mask="url(#path-1-inside-1)"/>
<path d="M15.584 3.03168C13.2986 0.866302 4.16 0.164926 1.41338 0.00230086C1.03475 -0.0163241 0.685375 0.108927 0.41875 0.362302C0.152 0.612927 0 0.964927 0 1.33293V25.3329C0 26.0689 0.597375 26.6663 1.33337 26.6663H9.33337C9.90938 26.6663 10.4214 26.2957 10.6 25.7463C10.7946 25.1489 15.3894 11.0477 15.9946 4.1143C16.0294 3.70893 15.88 3.30893 15.584 3.03168ZM8.36 23.9997H2.66663V2.7623C6.952 3.10093 11.576 3.83693 13.256 4.65293C12.5494 10.4929 9.352 20.8689 8.36 23.9997Z" stroke="white" stroke-width="0.2" mask="url(#path-1-inside-1)"/>
<path d="M62.6666 2.66602C52.1973 2.66602 46.3893 5.34601 46.1466 5.45801C45.8 5.62064 45.5413 5.92201 45.4346 6.28739C45.328 6.65276 45.3813 7.04476 45.5813 7.37001C47.2293 10.0234 52.3893 24.7594 53.3813 28.354C53.5413 28.9326 54.0666 29.3326 54.6666 29.3326H62.6666C63.4026 29.3326 64 28.7353 64 27.9993V3.99927C64 3.26064 63.4026 2.66602 62.6666 2.66602ZM61.3334 26.666H55.664C54.4 22.5486 50.6666 11.8126 48.584 7.37539C50.6186 6.68476 54.9894 5.49802 61.3334 5.34877V26.666Z" stroke="white" stroke-width="0.2" mask="url(#path-1-inside-1)"/>
</svg>
