<svg width="64" height="64" viewBox="0 0 64 64" fill="none" xmlns="http://www.w3.org/2000/svg">
<mask id="path-1-inside-1" fill="white">
<path d="M43.375 7.625H37.625V5.625C37.625 4.5895 36.7855 3.75 35.75 3.75H29.8037C29.0299 1.56737 26.9445 0 24.5 0C22.0555 0 19.9701 1.56737 19.1963 3.75H13.125C12.0895 3.75 11.25 4.5895 11.25 5.625V7.625H5.625C2.52338 7.625 0 10.1484 0 13.25V58.375C0 61.4766 2.52338 64 5.625 64H43.375C46.4766 64 49 61.4766 49 58.375V13.25C49 10.1484 46.4766 7.625 43.375 7.625ZM15 7.5H20.75C21.7855 7.5 22.625 6.6605 22.625 5.625C22.625 4.59113 23.4661 3.75 24.5 3.75C25.5339 3.75 26.375 4.59113 26.375 5.625C26.375 6.6605 27.2145 7.5 28.25 7.5H33.875V9.5C33.875 10.5339 33.0339 11.375 32 11.375H16.875C15.8411 11.375 15 10.5339 15 9.5V7.5ZM45.25 58.375C45.25 59.4089 44.4089 60.25 43.375 60.25H5.625C4.59113 60.25 3.75 59.4089 3.75 58.375V13.25C3.75 12.2161 4.59113 11.375 5.625 11.375H11.5725C12.3465 13.5574 14.4306 15.125 16.875 15.125H32C34.4444 15.125 36.5285 13.5574 37.3025 11.375H43.375C44.4089 11.375 45.25 12.2161 45.25 13.25V58.375Z"/>
<path d="M22.0866 32.5603C21.3606 31.822 20.1734 31.8121 19.4351 32.5384L13.1359 38.7344L10.7007 36.2993C9.96861 35.567 8.78136 35.567 8.04911 36.2993C7.31686 37.0315 7.31686 38.2186 8.04911 38.9509L11.7992 42.7009C12.1651 43.0668 12.645 43.25 13.125 43.25C13.5997 43.25 14.0749 43.0708 14.4397 42.7118L22.0647 35.2118C22.803 34.4856 22.8127 33.2985 22.0866 32.5603Z"/>
<path d="M22.0866 45.6853C21.3606 44.947 20.1734 44.9371 19.4351 45.6634L13.1359 51.8594L10.7007 49.4243C9.96861 48.692 8.78136 48.692 8.04911 49.4243C7.31686 50.1565 7.31686 51.3436 8.04911 52.0759L11.7992 55.8259C12.1651 56.1918 12.645 56.375 13.125 56.375C13.5997 56.375 14.0749 56.1958 14.4397 55.8368L22.0647 48.3368C22.803 47.6106 22.8127 46.4235 22.0866 45.6853Z"/>
<path d="M18.2009 26.9243L15.7766 24.5L18.2007 22.0759C18.933 21.3436 18.933 20.1565 18.2007 19.4243C17.4686 18.692 16.2814 18.692 15.5491 19.4243L13.125 21.8484L10.7007 19.4243C9.96861 18.692 8.78136 18.692 8.04911 19.4243C7.31686 20.1565 7.31686 21.3436 8.04911 22.0759L10.4734 24.5L8.04924 26.9241C7.31699 27.6564 7.31699 28.8436 8.04924 29.5759C8.78136 30.308 9.96861 30.3081 10.7009 29.5759L13.125 27.1516L15.5492 29.5759C16.2814 30.308 17.4686 30.3081 18.2009 29.5759C18.9331 28.8436 18.9331 27.6565 18.2009 26.9243Z"/>
<path d="M39.625 22.625H28.25C27.2145 22.625 26.375 23.4645 26.375 24.5C26.375 25.5355 27.2145 26.375 28.25 26.375H39.625C40.6605 26.375 41.5 25.5355 41.5 24.5C41.5 23.4645 40.6605 22.625 39.625 22.625Z"/>
<path d="M39.625 35.75H28.25C27.2145 35.75 26.375 36.5895 26.375 37.625C26.375 38.6605 27.2145 39.5 28.25 39.5H39.625C40.6605 39.5 41.5 38.6605 41.5 37.625C41.5 36.5895 40.6605 35.75 39.625 35.75Z"/>
<path d="M39.625 48.875H28.25C27.2145 48.875 26.375 49.7145 26.375 50.75C26.375 51.7855 27.2145 52.625 28.25 52.625H39.625C40.6605 52.625 41.5 51.7855 41.5 50.75C41.5 49.7145 40.6605 48.875 39.625 48.875Z"/>
<path d="M58.375 11.375C55.2734 11.375 52.75 13.8984 52.75 17C52.75 18.1927 52.75 45.764 52.75 47C52.75 47.2018 52.7861 47.4107 52.8442 47.5871L56.5942 58.9621C56.8476 59.7306 57.5656 60.25 58.375 60.25C59.1844 60.25 59.9024 59.7306 60.1558 58.9621L63.9058 47.5871C63.9688 47.3956 64 47.1831 64 47C64 45.766 64 18.1976 64 17C64 13.8984 61.4766 11.375 58.375 11.375ZM58.375 52.3864L56.8265 47.6894C57.3005 47.4489 57.828 47.3216 58.375 47.3216C58.922 47.3216 59.4495 47.4489 59.9235 47.6894L58.375 52.3864ZM60.25 43.8198C59.646 43.6574 59.0173 43.5716 58.375 43.5716C57.7327 43.5716 57.104 43.6572 56.5 43.8196V26.375H60.25V43.8198ZM60.25 22.625H56.5V17C56.5 15.9661 57.3411 15.125 58.375 15.125C59.4089 15.125 60.25 15.9661 60.25 17V22.625Z"/>
</mask>
<path d="M43.375 7.625H37.625V5.625C37.625 4.5895 36.7855 3.75 35.75 3.75H29.8037C29.0299 1.56737 26.9445 0 24.5 0C22.0555 0 19.9701 1.56737 19.1963 3.75H13.125C12.0895 3.75 11.25 4.5895 11.25 5.625V7.625H5.625C2.52338 7.625 0 10.1484 0 13.25V58.375C0 61.4766 2.52338 64 5.625 64H43.375C46.4766 64 49 61.4766 49 58.375V13.25C49 10.1484 46.4766 7.625 43.375 7.625ZM15 7.5H20.75C21.7855 7.5 22.625 6.6605 22.625 5.625C22.625 4.59113 23.4661 3.75 24.5 3.75C25.5339 3.75 26.375 4.59113 26.375 5.625C26.375 6.6605 27.2145 7.5 28.25 7.5H33.875V9.5C33.875 10.5339 33.0339 11.375 32 11.375H16.875C15.8411 11.375 15 10.5339 15 9.5V7.5ZM45.25 58.375C45.25 59.4089 44.4089 60.25 43.375 60.25H5.625C4.59113 60.25 3.75 59.4089 3.75 58.375V13.25C3.75 12.2161 4.59113 11.375 5.625 11.375H11.5725C12.3465 13.5574 14.4306 15.125 16.875 15.125H32C34.4444 15.125 36.5285 13.5574 37.3025 11.375H43.375C44.4089 11.375 45.25 12.2161 45.25 13.25V58.375Z" fill="#344AA3"/>
<path d="M22.0866 32.5603C21.3606 31.822 20.1734 31.8121 19.4351 32.5384L13.1359 38.7344L10.7007 36.2993C9.96861 35.567 8.78136 35.567 8.04911 36.2993C7.31686 37.0315 7.31686 38.2186 8.04911 38.9509L11.7992 42.7009C12.1651 43.0668 12.645 43.25 13.125 43.25C13.5997 43.25 14.0749 43.0708 14.4397 42.7118L22.0647 35.2118C22.803 34.4856 22.8127 33.2985 22.0866 32.5603Z" fill="#344AA3"/>
<path d="M22.0866 45.6853C21.3606 44.947 20.1734 44.9371 19.4351 45.6634L13.1359 51.8594L10.7007 49.4243C9.96861 48.692 8.78136 48.692 8.04911 49.4243C7.31686 50.1565 7.31686 51.3436 8.04911 52.0759L11.7992 55.8259C12.1651 56.1918 12.645 56.375 13.125 56.375C13.5997 56.375 14.0749 56.1958 14.4397 55.8368L22.0647 48.3368C22.803 47.6106 22.8127 46.4235 22.0866 45.6853Z" fill="#344AA3"/>
<path d="M18.2009 26.9243L15.7766 24.5L18.2007 22.0759C18.933 21.3436 18.933 20.1565 18.2007 19.4243C17.4686 18.692 16.2814 18.692 15.5491 19.4243L13.125 21.8484L10.7007 19.4243C9.96861 18.692 8.78136 18.692 8.04911 19.4243C7.31686 20.1565 7.31686 21.3436 8.04911 22.0759L10.4734 24.5L8.04924 26.9241C7.31699 27.6564 7.31699 28.8436 8.04924 29.5759C8.78136 30.308 9.96861 30.3081 10.7009 29.5759L13.125 27.1516L15.5492 29.5759C16.2814 30.308 17.4686 30.3081 18.2009 29.5759C18.9331 28.8436 18.9331 27.6565 18.2009 26.9243Z" fill="#344AA3"/>
<path d="M39.625 22.625H28.25C27.2145 22.625 26.375 23.4645 26.375 24.5C26.375 25.5355 27.2145 26.375 28.25 26.375H39.625C40.6605 26.375 41.5 25.5355 41.5 24.5C41.5 23.4645 40.6605 22.625 39.625 22.625Z" fill="#344AA3"/>
<path d="M39.625 35.75H28.25C27.2145 35.75 26.375 36.5895 26.375 37.625C26.375 38.6605 27.2145 39.5 28.25 39.5H39.625C40.6605 39.5 41.5 38.6605 41.5 37.625C41.5 36.5895 40.6605 35.75 39.625 35.75Z" fill="#344AA3"/>
<path d="M39.625 48.875H28.25C27.2145 48.875 26.375 49.7145 26.375 50.75C26.375 51.7855 27.2145 52.625 28.25 52.625H39.625C40.6605 52.625 41.5 51.7855 41.5 50.75C41.5 49.7145 40.6605 48.875 39.625 48.875Z" fill="#344AA3"/>
<path d="M58.375 11.375C55.2734 11.375 52.75 13.8984 52.75 17C52.75 18.1927 52.75 45.764 52.75 47C52.75 47.2018 52.7861 47.4107 52.8442 47.5871L56.5942 58.9621C56.8476 59.7306 57.5656 60.25 58.375 60.25C59.1844 60.25 59.9024 59.7306 60.1558 58.9621L63.9058 47.5871C63.9688 47.3956 64 47.1831 64 47C64 45.766 64 18.1976 64 17C64 13.8984 61.4766 11.375 58.375 11.375ZM58.375 52.3864L56.8265 47.6894C57.3005 47.4489 57.828 47.3216 58.375 47.3216C58.922 47.3216 59.4495 47.4489 59.9235 47.6894L58.375 52.3864ZM60.25 43.8198C59.646 43.6574 59.0173 43.5716 58.375 43.5716C57.7327 43.5716 57.104 43.6572 56.5 43.8196V26.375H60.25V43.8198ZM60.25 22.625H56.5V17C56.5 15.9661 57.3411 15.125 58.375 15.125C59.4089 15.125 60.25 15.9661 60.25 17V22.625Z" fill="#344AA3"/>
<path d="M43.375 7.625H37.625V5.625C37.625 4.5895 36.7855 3.75 35.75 3.75H29.8037C29.0299 1.56737 26.9445 0 24.5 0C22.0555 0 19.9701 1.56737 19.1963 3.75H13.125C12.0895 3.75 11.25 4.5895 11.25 5.625V7.625H5.625C2.52338 7.625 0 10.1484 0 13.25V58.375C0 61.4766 2.52338 64 5.625 64H43.375C46.4766 64 49 61.4766 49 58.375V13.25C49 10.1484 46.4766 7.625 43.375 7.625ZM15 7.5H20.75C21.7855 7.5 22.625 6.6605 22.625 5.625C22.625 4.59113 23.4661 3.75 24.5 3.75C25.5339 3.75 26.375 4.59113 26.375 5.625C26.375 6.6605 27.2145 7.5 28.25 7.5H33.875V9.5C33.875 10.5339 33.0339 11.375 32 11.375H16.875C15.8411 11.375 15 10.5339 15 9.5V7.5ZM45.25 58.375C45.25 59.4089 44.4089 60.25 43.375 60.25H5.625C4.59113 60.25 3.75 59.4089 3.75 58.375V13.25C3.75 12.2161 4.59113 11.375 5.625 11.375H11.5725C12.3465 13.5574 14.4306 15.125 16.875 15.125H32C34.4444 15.125 36.5285 13.5574 37.3025 11.375H43.375C44.4089 11.375 45.25 12.2161 45.25 13.25V58.375Z" stroke="#F9F9FA" stroke-width="1.4" mask="url(#path-1-inside-1)"/>
<path d="M22.0866 32.5603C21.3606 31.822 20.1734 31.8121 19.4351 32.5384L13.1359 38.7344L10.7007 36.2993C9.96861 35.567 8.78136 35.567 8.04911 36.2993C7.31686 37.0315 7.31686 38.2186 8.04911 38.9509L11.7992 42.7009C12.1651 43.0668 12.645 43.25 13.125 43.25C13.5997 43.25 14.0749 43.0708 14.4397 42.7118L22.0647 35.2118C22.803 34.4856 22.8127 33.2985 22.0866 32.5603Z" stroke="#F9F9FA" stroke-width="1.4" mask="url(#path-1-inside-1)"/>
<path d="M22.0866 45.6853C21.3606 44.947 20.1734 44.9371 19.4351 45.6634L13.1359 51.8594L10.7007 49.4243C9.96861 48.692 8.78136 48.692 8.04911 49.4243C7.31686 50.1565 7.31686 51.3436 8.04911 52.0759L11.7992 55.8259C12.1651 56.1918 12.645 56.375 13.125 56.375C13.5997 56.375 14.0749 56.1958 14.4397 55.8368L22.0647 48.3368C22.803 47.6106 22.8127 46.4235 22.0866 45.6853Z" stroke="#F9F9FA" stroke-width="1.4" mask="url(#path-1-inside-1)"/>
<path d="M18.2009 26.9243L15.7766 24.5L18.2007 22.0759C18.933 21.3436 18.933 20.1565 18.2007 19.4243C17.4686 18.692 16.2814 18.692 15.5491 19.4243L13.125 21.8484L10.7007 19.4243C9.96861 18.692 8.78136 18.692 8.04911 19.4243C7.31686 20.1565 7.31686 21.3436 8.04911 22.0759L10.4734 24.5L8.04924 26.9241C7.31699 27.6564 7.31699 28.8436 8.04924 29.5759C8.78136 30.308 9.96861 30.3081 10.7009 29.5759L13.125 27.1516L15.5492 29.5759C16.2814 30.308 17.4686 30.3081 18.2009 29.5759C18.9331 28.8436 18.9331 27.6565 18.2009 26.9243Z" stroke="#F9F9FA" stroke-width="1.4" mask="url(#path-1-inside-1)"/>
<path d="M39.625 22.625H28.25C27.2145 22.625 26.375 23.4645 26.375 24.5C26.375 25.5355 27.2145 26.375 28.25 26.375H39.625C40.6605 26.375 41.5 25.5355 41.5 24.5C41.5 23.4645 40.6605 22.625 39.625 22.625Z" stroke="#F9F9FA" stroke-width="1.4" mask="url(#path-1-inside-1)"/>
<path d="M39.625 35.75H28.25C27.2145 35.75 26.375 36.5895 26.375 37.625C26.375 38.6605 27.2145 39.5 28.25 39.5H39.625C40.6605 39.5 41.5 38.6605 41.5 37.625C41.5 36.5895 40.6605 35.75 39.625 35.75Z" stroke="#F9F9FA" stroke-width="1.4" mask="url(#path-1-inside-1)"/>
<path d="M39.625 48.875H28.25C27.2145 48.875 26.375 49.7145 26.375 50.75C26.375 51.7855 27.2145 52.625 28.25 52.625H39.625C40.6605 52.625 41.5 51.7855 41.5 50.75C41.5 49.7145 40.6605 48.875 39.625 48.875Z" stroke="#F9F9FA" stroke-width="1.4" mask="url(#path-1-inside-1)"/>
<path d="M58.375 11.375C55.2734 11.375 52.75 13.8984 52.75 17C52.75 18.1927 52.75 45.764 52.75 47C52.75 47.2018 52.7861 47.4107 52.8442 47.5871L56.5942 58.9621C56.8476 59.7306 57.5656 60.25 58.375 60.25C59.1844 60.25 59.9024 59.7306 60.1558 58.9621L63.9058 47.5871C63.9688 47.3956 64 47.1831 64 47C64 45.766 64 18.1976 64 17C64 13.8984 61.4766 11.375 58.375 11.375ZM58.375 52.3864L56.8265 47.6894C57.3005 47.4489 57.828 47.3216 58.375 47.3216C58.922 47.3216 59.4495 47.4489 59.9235 47.6894L58.375 52.3864ZM60.25 43.8198C59.646 43.6574 59.0173 43.5716 58.375 43.5716C57.7327 43.5716 57.104 43.6572 56.5 43.8196V26.375H60.25V43.8198ZM60.25 22.625H56.5V17C56.5 15.9661 57.3411 15.125 58.375 15.125C59.4089 15.125 60.25 15.9661 60.25 17V22.625Z" stroke="#F9F9FA" stroke-width="1.4" mask="url(#path-1-inside-1)"/>
</svg>
