<svg width="60" height="60" viewBox="0 0 60 60" fill="none" xmlns="http://www.w3.org/2000/svg">
<g clip-path="url(#clip0)">
<path d="M59.7238 27.9504V27.9254H59.6988H56.8451V14.7081C56.8451 11.5196 54.2511 8.92563 51.0626 8.92563H47.1784L43.1956 1.76471C42.5831 0.660401 41.4175 -0.025 40.1533 -0.025C39.564 -0.025 38.9795 0.126953 38.4634 0.413344L38.4634 0.413356L23.1565 8.92545H6.05864C2.87011 8.92545 0.276178 11.5194 0.276178 14.7079V54.2424C0.276178 57.4309 2.87011 60.0248 6.05864 60.0248H51.0626C54.2511 60.0248 56.8451 57.4309 56.8451 54.2424V42.6568H59.6988H59.7238V42.6318V27.9504ZM39.6081 2.46985L39.6081 2.46981C40.1359 2.17386 40.8474 2.3811 41.1389 2.90697L41.1389 2.90701L47.4745 14.2984H18.3356L39.6081 2.46985ZM51.0626 11.2785C52.8132 11.2785 54.2454 12.6013 54.4509 14.2995H50.1664L48.4876 11.2785H51.0626ZM54.492 54.2424C54.492 56.1331 52.9532 57.6719 51.0624 57.6719H6.05864C4.16786 57.6719 2.62905 56.1331 2.62905 54.2424V14.7081C2.62905 12.8173 4.16786 11.2785 6.05864 11.2785H18.9257L13.4931 14.2997H6.77836C6.12777 14.2997 5.60184 14.8267 5.60184 15.4762C5.60184 16.1257 6.12777 16.6527 6.77836 16.6527H9.3577H51.4323H54.492V27.9265H46.0962C42.1718 27.9265 38.978 31.1204 38.978 35.0446V35.5399C38.978 39.4642 42.172 42.658 46.0962 42.658H54.492V54.2424ZM57.3708 40.3039H56.8201H46.0962C43.4685 40.3039 41.3309 38.1665 41.3309 35.5386V35.0434C41.3309 32.4157 43.4683 30.2781 46.0962 30.2781H56.8201H57.3708V40.3039ZM47.0807 37.953C48.4992 37.953 49.6482 36.8043 49.6482 35.3856C49.6482 33.968 48.4994 32.818 47.0807 32.8182C45.6622 32.8182 44.5133 33.9671 44.5133 35.3856C44.5133 36.8041 45.6621 37.953 47.0807 37.953Z" fill="#344AA3" stroke="#344AA3" stroke-width="0.05"/>
</g>
<defs>
<clipPath id="clip0">
<rect width="60" height="60" fill="white"/>
</clipPath>
</defs>
</svg>
