<svg width="64" height="64" viewBox="0 0 64 64" fill="none" xmlns="http://www.w3.org/2000/svg">
<g clip-path="url(#clip0)">
<path d="M49.333 25.3325H11.9988C9.79335 25.3325 7.99869 27.1272 7.99869 29.3326V31.9993C7.99869 41.5142 13.2548 50.1437 21.7136 54.5198C22.367 54.8559 23.1723 54.6025 23.511 53.9465C23.8471 53.2931 23.5937 52.4878 22.9377 52.149C15.3695 48.2343 10.6654 40.5141 10.6654 31.9992V29.3325C10.6654 28.5965 11.2628 27.9991 11.9988 27.9991H49.333C50.069 27.9991 50.6664 28.5965 50.6664 29.3325V31.9992C50.6664 40.514 45.9623 48.2342 38.3915 52.1463C37.7355 52.4849 37.4821 53.2903 37.8181 53.9437C38.0555 54.4023 38.5221 54.6663 39.0048 54.6663C39.2128 54.6663 39.4208 54.6183 39.6154 54.517C48.077 50.1435 53.3331 41.5167 53.3331 31.9991V29.3324C53.3331 27.1272 51.5383 25.3325 49.333 25.3325Z" fill="#344AA3"/>
<path d="M61.2346 52.8211C61.0266 52.3225 60.5412 51.9971 60.0025 51.9971H1.33453C0.795893 51.9971 0.310506 52.3225 0.102502 52.8211C-0.105503 53.3197 0.00912438 53.8931 0.390508 54.2745L3.37995 57.2666C5.14537 59.0292 7.48668 60 9.98011 60H51.3517C53.8451 60 56.1892 59.0294 57.9572 57.2666L60.9467 54.2745C61.3279 53.8931 61.4426 53.3197 61.2346 52.8211ZM56.0692 55.3811C54.8105 56.6398 53.1331 57.3332 51.3545 57.3332H9.98011C8.20144 57.3332 6.52403 56.6398 5.26537 55.3811L4.55073 54.6665H56.7838L56.0692 55.3811Z" fill="#344AA3"/>
<path d="M61.4213 31.6289C57.8292 29.3195 52.0905 31.8263 51.4477 32.1169C50.7783 32.4235 50.4797 33.2129 50.7863 33.885C51.093 34.557 51.8797 34.853 52.5544 34.5463C53.8398 33.9623 57.9625 32.5783 59.9785 33.877C60.8879 34.461 61.3332 35.5944 61.3332 37.333C61.3332 42.6718 50.5649 45.8986 46.4075 46.6932L45.4634 46.8799C44.7408 47.0213 44.2714 47.7225 44.4128 48.4453C44.5382 49.0799 45.0954 49.5199 45.7195 49.5199C45.8048 49.5199 45.8901 49.5119 45.9781 49.4933L46.9141 49.3093C47.6127 49.1759 63.9999 45.9626 63.9999 37.333C64 34.6503 63.1307 32.7329 61.4213 31.6289Z" fill="#344AA3"/>
<path d="M41.0475 14.1644C43.2155 11.455 43.2155 7.21224 41.0475 4.5028C40.5861 3.92679 39.7514 3.83078 39.1728 4.29479C38.5968 4.75618 38.5034 5.59345 38.9648 6.16946C40.3382 7.88413 40.3382 10.7829 38.9622 12.503C36.7915 15.2124 36.7915 19.4551 38.9622 22.1646C39.2262 22.4952 39.6128 22.666 40.0048 22.666C40.2955 22.666 40.5915 22.57 40.8369 22.3726C41.4129 21.9112 41.5062 21.0712 41.0449 20.4979C39.6688 18.7831 39.6688 15.8844 41.0475 14.1644Z" fill="#344AA3"/>
<path d="M33.0367 14.1643C35.2073 11.4548 35.2073 7.21211 33.0367 4.50267C32.578 3.92666 31.738 3.83328 31.162 4.29467C30.586 4.75605 30.4926 5.59607 30.954 6.16934C32.33 7.884 32.33 10.7828 30.9514 12.5029C28.7833 15.2123 28.7833 19.455 30.9514 22.1645C31.2154 22.4951 31.602 22.6658 31.994 22.6658C32.2846 22.6658 32.578 22.5698 32.826 22.3725C33.402 21.9111 33.4954 21.0738 33.034 20.4978C31.6606 18.783 31.6606 15.8843 33.0367 14.1643Z" fill="#344AA3"/>
<path d="M25.0471 14.1668C27.2151 11.4574 27.2151 7.21468 25.0471 4.50524C24.5884 3.92923 23.7511 3.83323 23.1724 4.29724C22.599 4.75587 22.5058 5.59589 22.9644 6.16928C24.3378 7.88395 24.3378 10.7828 22.9618 12.5028C20.7911 15.2122 20.7911 19.455 22.9618 22.1644C23.2258 22.495 23.6124 22.6658 24.0044 22.6658C24.2951 22.6658 24.5911 22.5698 24.8365 22.3752C25.4125 21.9138 25.5058 21.0738 25.0445 20.5005C23.6684 18.7829 23.6684 15.8869 25.0471 14.1668Z" fill="#344AA3"/>
</g>
<defs>
<clipPath id="clip0">
<rect width="64" height="64" fill="white"/>
</clipPath>
</defs>
</svg>
