<svg width="52" height="66" viewBox="0 0 52 66" fill="none" xmlns="http://www.w3.org/2000/svg">
<path d="M1.60584 13.8773L1.60589 13.8772L24.9942 1.06005C25.378 0.849334 25.8415 0.846443 26.2282 1.0528L50.2821 13.87C50.705 14.0952 50.9692 14.5362 50.9692 15.0154V31.4259C50.9679 45.3965 42.5881 58.0039 29.7073 63.4139C29.7071 63.4139 29.707 63.414 29.7068 63.4141L26.0497 64.9934L1.60584 13.8773ZM1.60584 13.8773C1.19022 14.1053 0.932471 14.5413 0.932471 15.0154L0.932471 31.758L0.932471 31.7581M1.60584 13.8773L0.932471 31.7581M0.932471 31.7581C0.946545 45.5606 9.12417 58.0475 21.7706 63.5772L21.7707 63.5773M0.932471 31.7581L21.7707 63.5773M21.7707 63.5773L25.0171 64.992M21.7707 63.5773L25.0171 64.992M15.0371 30.7725C15.5823 30.307 16.4012 30.3715 16.8667 30.9167L22.3693 37.3599L36.1184 26.1748C36.6745 25.7222 37.492 25.8069 37.9438 26.3623C38.3963 26.9183 38.3124 27.7358 37.7562 28.1877L23.0239 40.1735C23.0239 40.1735 23.0238 40.1735 23.0238 40.1736C22.4778 40.6182 21.6762 40.5449 21.2187 40.0092L21.2948 39.9443L21.2187 40.0092L14.893 32.6016L15.0371 30.7725ZM15.0371 30.7725C14.4918 31.2374 14.4274 32.057 14.893 32.6016L15.0371 30.7725ZM25.0171 64.992C25.3458 65.1354 25.7201 65.1361 26.0496 64.9935L25.0171 64.992ZM28.6918 61.0264L28.6917 61.0262L28.6858 61.0292L28.6802 61.032L25.5371 62.3889L22.809 61.1988C11.1074 56.0824 3.54017 44.5294 3.52684 31.7579V15.7837L25.6264 3.67179L48.3742 15.7932V31.4258C48.3715 44.3558 40.6138 56.0227 28.6918 61.0264Z" fill="#344AA3" stroke="#344AA3" stroke-width="0.2"/>
</svg>
