<svg width="64" height="64" viewBox="0 0 64 64" fill="none" xmlns="http://www.w3.org/2000/svg">
<path d="M50.5052 14.8196L50.1437 15.3H50.7449H58.375C61.3109 15.3 63.7 17.6891 63.7 20.625V24.375C63.7 26.688 62.2165 28.6617 60.1497 29.3948L59.95 29.4656V29.6775V58.375C59.95 61.3109 57.5609 63.7 54.625 63.7H9.375C6.43906 63.7 4.05 61.3109 4.05 58.375V29.6775V29.4656L3.85028 29.3948C1.78346 28.6617 0.3 26.688 0.3 24.375V20.625C0.3 17.6891 2.68906 15.3 5.625 15.3H13.2551H13.8563L13.4948 14.8196C12.3527 13.3016 11.675 11.4163 11.675 9.375C11.675 4.37131 15.7463 0.3 20.75 0.3C23.7739 0.3 25.98 1.37477 27.7371 3.69212C29.2261 5.65609 30.3222 8.40946 31.7209 11.9581L32 12.6662L32.2791 11.9581C33.6778 8.40958 34.7739 5.65609 36.2629 3.69213C38.02 1.37477 40.2261 0.3 43.25 0.3C48.2537 0.3 52.325 4.37131 52.325 9.375C52.325 11.4163 51.6473 13.3016 50.5052 14.8196ZM34.5072 14.889L34.3435 15.3H34.7859H43.25C46.5173 15.3 49.175 12.6423 49.175 9.375C49.175 6.10769 46.5173 3.45 43.25 3.45C42.2593 3.45 41.4225 3.59853 40.6825 3.95358C39.9411 4.30927 39.3191 4.86148 38.7413 5.63383C37.5992 7.16066 36.5931 9.60337 35.1626 13.2325C34.9557 13.7577 34.7367 14.3127 34.5072 14.889ZM28.8374 13.2325L28.8374 13.2325C27.4069 9.60337 26.4008 7.16066 25.2587 5.63383C24.6809 4.86148 24.0589 4.30927 23.3175 3.95358C22.5775 3.59853 21.7407 3.45 20.75 3.45C17.4827 3.45 14.825 6.10769 14.825 9.375C14.825 12.6423 17.4827 15.3 20.75 15.3H29.2141H29.6565L29.4928 14.889C29.2633 14.3127 29.0443 13.7577 28.8374 13.2325ZM24.5 60.55H24.8V60.25V30V29.7H24.5H7.5H7.2V30V58.375C7.2 59.5746 8.17544 60.55 9.375 60.55H24.5ZM24.5 26.55H24.8V26.25V18.75V18.45H24.5H5.625C4.42544 18.45 3.45 19.4254 3.45 20.625V24.375C3.45 25.5746 4.42544 26.55 5.625 26.55H24.5ZM36.05 60.55V60.25V18.75V18.45H35.75H35.7373H35.7246H35.7118H35.699H35.6861H35.6731H35.6601H35.647H35.6338H35.6206H35.6073H35.594H35.5806H35.5671H35.5536H35.54H35.5264H35.5127H35.4989H35.4851H35.4712H35.4573H35.4433H35.4293H35.4152H35.401H35.3868H35.3726H35.3582H35.3439H35.3294H35.315H35.3004H35.2858H35.2712H35.2565H35.2418H35.227H35.2121H35.1972H35.1823H35.1673H35.1522H35.1371H35.122H35.1068H35.0915H35.0762H35.0609H35.0455H35.03H35.0145H34.999H34.9834H34.9678H34.9521H34.9364H34.9206H34.9048H34.889H34.8731H34.8571H34.8412H34.8251H34.8091H34.7929H34.7768H34.7606H34.7443H34.7281H34.7117H34.6954H34.679H34.6625H34.646H34.6295H34.613H34.5964H34.5797H34.563H34.5463H34.5296H34.5128H34.496H34.4791H34.4622H34.4453H34.4283H34.4113H34.3942H34.3772H34.3601H34.3429H34.3257H34.3085H34.2913H34.274H34.2567H34.2394H34.222H34.2046H34.1872H34.1697H34.1522H34.1347H34.1172H34.0996H34.082H34.0643H34.0467H34.029H34.0112H33.9935H33.9757H33.9579H33.9401H33.9222H33.9044H33.8865H33.8685H33.8506H33.8326H33.8146H33.7966H33.7785H33.7604H33.7424H33.7242H33.7061H33.6879H33.6698H33.6516H33.6333H33.6151H33.5968H33.5785H33.5602H33.5419H33.5236H33.5052H33.4868H33.4684H33.45H33.4316H33.4132H33.3947H33.3762H33.3577H33.3392H33.3207H33.3022H33.2836H33.265H33.2465H33.2279H33.2093H33.1906H33.172H33.1534H33.1347H33.1161H33.0974H33.0787H33.06H33.0413H33.0226H33.0038H32.9851H32.9663H32.9476H32.9288H32.9101H32.8913H32.8725H32.8537H32.8349H32.8161H32.7973H32.7785H32.7597H32.7408H32.722H32.7032H32.6843H32.6655H32.6466H32.6278H32.6089H32.5901H32.5712H32.5524H32.5335H32.5147H32.4958H32.4769H32.4581H32.4392H32.4204H32.4015H32.3827H32.3638H32.345H32.3261H32.3073H32.2884H32.2696H32.2507H32.2319H32.2131H32.1943H32.1754H32.1566H32.1378H32.119H32.1002H32.0814H32.0627H32.0439H32.0251H32.0064H31.9876H31.9689H31.9501H31.9314H31.9127H31.894H31.8753H31.8566H31.838H31.8193H31.8007H31.782H31.7634H31.7448H31.7262H31.7076H31.689H31.6705H31.6519H31.6334H31.6149H31.5964H31.5779H31.5594H31.541H31.5226H31.5041H31.4857H31.4674H31.449H31.4307H31.4123H31.394H31.3757H31.3575H31.3392H31.321H31.3028H31.2846H31.2664H31.2483H31.2301H31.212H31.194H31.1759H31.1579H31.1399H31.1219H31.1039H31.086H31.0681H31.0502H31.0323H31.0145H30.9967H30.9789H30.9611H30.9434H30.9257H30.908H30.8904H30.8727H30.8551H30.8376H30.82H30.8025H30.7851H30.7676H30.7502H30.7328H30.7155H30.6982H30.6809H30.6636H30.6464H30.6292H30.6121H30.595H30.5779H30.5608H30.5438H30.5268H30.5099H30.493H30.4761H30.4592H30.4424H30.4257H30.4089H30.3923H30.3756H30.359H30.3424H30.3259H30.3094H30.2929H30.2765H30.2601H30.2438H30.2275H30.2112H30.195H30.1788H30.1627H30.1466H30.1306H30.1146H30.0986H30.0827H30.0668H30.051H30.0352H30.0195H30.0038H29.9882H29.9726H29.957H29.9415H29.9261H29.9106H29.8953H29.88H29.8647H29.8495H29.8343H29.8192H29.8041H29.7891H29.7741H29.7592H29.7444H29.7295H29.7148H29.7001H29.6854H29.6708H29.6562H29.6417H29.6273H29.6129H29.5986H29.5843H29.5701H29.5559H29.5418H29.5277H29.5137H29.4998H29.4859H29.472H29.4583H29.4445H29.4309H29.4173H29.4037H29.3903H29.3768H29.3635H29.3502H29.3369H29.3237H29.3106H29.2976H29.2846H29.2716H29.2588H29.246H29.2332H29.2205H29.2079H29.1954H29.1829H29.1704H29.1581H29.1458H29.1336H29.1214H29.1093H29.0973H29.0853H29.0734H29.0616H29.0498H29.0382H29.0265H29.015H29.0035H28.9921H28.9808H28.9695H28.9583H28.9472H28.9361H28.9251H28.9142H28.9034H28.8926H28.8819H28.8713H28.8607H28.8503H28.8399H28.8295H28.8193H28.8091H28.799H28.789H28.779H28.7692H28.7594H28.7497H28.74H28.7305H28.721H28.7116H28.7023H28.693H28.6839H28.6748H28.6658H28.6568H28.648H28.6392H28.6306H28.622H28.6135H28.605H28.5967H28.5884H28.5802H28.5721H28.5641H28.5562H28.5483H28.5406H28.5329H28.5253H28.5178H28.5104H28.5031H28.4958H28.4887H28.4816H28.4746H28.4678H28.461H28.4543H28.4476H28.4411H28.4347H28.4283H28.4221H28.4159H28.4098H28.4038H28.3979H28.3921H28.3864H28.3808H28.3753H28.3699H28.3645H28.3593H28.3542H28.3491H28.3442H28.3393H28.3345H28.3299H28.3253H28.3208H28.3165H28.3122H28.308H28.3039H28.3H28.2961H28.2923H28.2886H28.285H28.2816H28.2782H28.2749H28.2717H28.2687H28.2657H28.2628H28.26H28.2574H28.2548H28.2524H28.25H27.95V18.75V60.25V60.55H28.25H35.75H36.05ZM39.2 60.25V60.55H39.5H54.625C55.8246 60.55 56.8 59.5746 56.8 58.375V30V29.7H56.5H39.5H39.2V30V60.25ZM39.2 26.25V26.55H39.5H58.375C59.5746 26.55 60.55 25.5746 60.55 24.375V20.625C60.55 19.4254 59.5746 18.45 58.375 18.45H39.5H39.2V18.75V26.25Z" fill="#344AA3" stroke="#F9F9FA" stroke-width="0.6"/>
</svg>
