<svg width="64" height="64" viewBox="0 0 64 64" fill="none" xmlns="http://www.w3.org/2000/svg">
<g clip-path="url(#clip0)">
<path d="M53.3322 39.7732L53.2398 39.9135L53.3348 40.052L63.0756 54.2579L52.1322 52.2176L51.8865 52.1718L51.8407 52.4176L49.8004 63.3608L40.6334 49.9919L40.5255 49.8346L40.3453 49.8971C37.7291 50.8051 34.9213 51.2998 31.999 51.2998C29.0772 51.2998 26.2695 50.8051 23.6528 49.8971L23.4725 49.8346L23.3646 49.9919L14.1981 63.3608L12.1574 52.4175L12.1116 52.1718L11.8658 52.2176L0.92249 54.2579L10.6632 40.052L10.7582 39.9135L10.6658 39.7732C8.01794 35.751 6.47412 30.9407 6.47412 25.7749C6.47412 11.7006 17.9247 0.25 31.999 0.25C46.0734 0.25 57.5244 11.7006 57.5244 25.7749C57.5244 30.9407 55.9806 35.751 53.3322 39.7732ZM15.8558 54.4023L15.9664 54.9955L16.3077 54.4978L20.2521 48.7464L20.4111 48.5145L20.1622 48.3837C17.4824 46.9746 15.0814 45.1042 13.0673 42.8768L12.8548 42.6418L12.6756 42.9031L8.42955 49.0959L8.08823 49.5938L8.68159 49.4831L14.7283 48.3551L15.8558 54.4023ZM48.1423 54.4023L49.2698 48.3551L55.317 49.4826L55.9103 49.5932L55.569 49.0954L51.3229 42.9031L51.1437 42.6418L50.9313 42.8768C48.9171 45.1042 46.5162 46.9746 43.8363 48.3837L43.5875 48.5145L43.7465 48.7464L47.6903 54.4978L48.0316 54.9956L48.1423 54.4023ZM31.999 3.52197C19.7286 3.52197 9.74609 13.5045 9.74609 25.7749C9.74609 38.0458 19.7286 48.0283 31.999 48.0283C44.2699 48.0283 54.2524 38.0458 54.2524 25.7749C54.2524 13.5045 44.2699 3.52197 31.999 3.52197Z" fill="#344AA3" stroke="#F9F9FA" stroke-width="0.5"/>
<path d="M27.2276 31.6123L27.4043 31.7891L27.5811 31.6123L42.7271 16.4673L45.0405 18.7808L27.4043 36.4165L18.9581 27.9702L21.2715 25.6568L27.2276 31.6123Z" fill="#344AA3" stroke="#F9F9FA" stroke-width="0.5"/>
</g>
<defs>
<clipPath id="clip0">
<rect width="64" height="64" fill="white"/>
</clipPath>
</defs>
</svg>
