<svg width="78" height="57" viewBox="0 0 78 57" fill="none" xmlns="http://www.w3.org/2000/svg">
<path d="M11.7423 41.6937L11.7424 41.6939C11.8876 42.0097 12.1524 42.2556 12.4781 42.3769C12.6206 42.4287 12.7718 42.4554 12.9238 42.4554H12.9243C13.1143 42.457 13.302 42.4164 13.4752 42.338C13.4753 42.3379 13.4755 42.3378 13.4756 42.3377L36.6488 31.514L36.7281 31.4769L36.7197 31.564L34.6208 53.5103C34.6208 53.5104 34.6208 53.5104 34.6208 53.5104M11.7423 41.6937L35.0201 54.651C34.6969 54.3624 34.5304 53.9377 34.571 53.5057L34.6208 53.5104M11.7423 41.6937L8.67556 35.1104C8.67549 35.1102 8.67542 35.11 8.67534 35.1099C8.38743 34.4569 8.67286 33.6932 9.31956 33.3898L11.6231 32.3274L11.7271 32.2795L11.6213 32.2358L0.893327 27.8052L0.893333 27.8052L0.892172 27.8047C0.538906 27.669 0.261782 27.3881 0.131444 27.0333L0.131402 27.0332C0.000256561 26.6788 0.0285994 26.285 0.209021 25.9532C0.209052 25.9531 0.209082 25.9531 0.209113 25.953L3.82057 19.4519C3.82058 19.4519 3.8206 19.4518 3.82061 19.4518C4.11056 18.9386 4.70593 18.6809 5.27783 18.8214C5.27787 18.8214 5.27792 18.8214 5.27797 18.8214L19.7685 22.5024L19.786 22.5068L19.8022 22.4991L28.444 18.4096L28.5225 18.3724L28.4509 18.3232L13.3613 7.95009C13.3613 7.95008 13.3613 7.95006 13.3612 7.95004C13.0191 7.71236 12.8099 7.32801 12.7967 6.91245C12.765 5.22725 13.5062 3.6203 14.8087 2.55092C16.3561 1.43465 18.5702 1.40178 21.3851 2.46191C21.3852 2.46195 21.3853 2.46199 21.3853 2.46202L43.7943 11.227L43.8143 11.2348L43.8338 11.2257L64.6767 1.45222L64.6774 1.45184C66.9752 0.326787 69.5608 -0.0711937 72.0907 0.310653L72.0922 0.310835C74.3613 0.582454 76.3466 1.96801 77.3833 4.00478C78.2946 5.95021 78.0732 8.17193 76.9597 10.2192C75.846 12.2669 73.8406 14.1376 71.1908 15.374L53.1294 23.7989L53.1101 23.808L53.1032 23.8282L43.9839 50.8315C42.9912 53.6877 41.5413 55.3451 39.6835 55.8299C39.3357 55.9184 38.979 55.9635 38.6203 55.964C37.3146 55.9211 36.0598 55.4464 35.0527 54.6131M11.7423 41.6937L35.0527 54.6131M34.6208 53.5104C34.5817 53.9263 34.7419 54.3351 35.0527 54.6131M34.6208 53.5104L35.0527 54.6131M11.697 41.7148C11.8477 42.0426 12.1226 42.2979 12.4607 42.4238C12.6088 42.4776 12.7659 42.5054 12.9238 42.5054C13.1215 42.5071 13.3166 42.4648 13.4963 42.3833L11.697 41.7148ZM15.4911 6.22551L15.4868 6.25616L15.5124 6.27365L31.2707 17.0695L31.2942 17.0856L31.3201 17.0735L40.4263 12.8205L40.5322 12.7711L40.4233 12.7286L20.4666 4.94487L20.466 4.94463C19.5159 4.58927 18.6827 4.38997 17.9876 4.35042C17.2929 4.31089 16.7312 4.43072 16.3297 4.7195L16.3297 4.7194L16.327 4.72165C15.8709 5.10102 15.5731 5.63691 15.4911 6.22551ZM3.22932 25.8914L3.20166 25.9405L3.25374 25.9621L15.4526 31.0189C15.4528 31.019 15.4529 31.0191 15.4531 31.0191C15.9294 31.229 16.2364 31.7001 16.2364 32.2205C16.2364 32.7407 15.9292 33.212 15.4526 33.4221L15.4515 33.4226L11.6083 35.2215L11.563 35.2427L11.5843 35.288L13.5052 39.3775L13.5264 39.4226L13.5716 39.4016L36.9639 28.4965L36.9898 28.4844L36.9925 28.456L37.4147 24.0804L37.4147 24.0804C37.4838 23.3552 38.1275 22.8226 38.8525 22.8921L38.8526 22.8921C39.5785 22.9608 40.1103 23.6045 40.0416 24.3296L37.3152 52.9562L37.3122 52.9869L37.3383 53.0033C37.8438 53.3208 38.4508 53.4359 39.0375 53.323L39.0375 53.3231L39.0408 53.3222C39.5192 53.1959 39.9674 52.8423 40.3785 52.2868C40.7897 51.731 41.1666 50.9693 41.5016 50.0189L41.5018 50.0182L52.7207 16.6352L52.7208 16.635C52.9529 15.9351 53.7087 15.5553 54.4095 15.7874C55.1094 16.0194 55.4892 16.7757 55.2567 17.4756L54.3023 20.2979L54.2648 20.409L54.3709 20.3592L70.0741 12.9977C71.9836 12.1081 73.5045 10.7627 74.4048 9.32923C75.3045 7.89668 75.5884 6.36834 75.0066 5.12017L75.0067 5.12011L75.0048 5.11672C74.3084 3.88279 73.0517 3.06837 71.6408 2.93801C69.6421 2.65175 67.6032 2.97693 65.7928 3.86981C65.7926 3.86988 65.7925 3.86995 65.7923 3.87002L20.4692 25.0392C20.4691 25.0393 20.469 25.0393 20.4689 25.0394C20.1967 25.1631 19.8912 25.1906 19.6018 25.1174L19.6016 25.1173L5.65669 21.6553L5.61975 21.6462L5.60107 21.6793L3.22932 25.8914Z" fill="#344AA3" stroke="#F9F9FA" stroke-width="0.1"/>
</svg>
